<svg xmlns="http://www.w3.org/2000/svg" xmlns:xlink="http://www.w3.org/1999/xlink" xmlns:lucid="lucid" width="1492.28" height="697.69"><g transform="translate(0 0)" lucid:page-tab-id="0_0"><path d="M0 0h1492.28v697.7H0z" fill="#fff"/><path d="M19.38 81.23h121v40h-121zM140.38 81.23h89v40h-89z" fill="#b2b2b2"/><path d="M229.38 81.23h211v40h-211z" fill="#a3d977"/><path d="M19.38 121.23h121v40h-121zM140.38 121.23h89v40h-89z" fill="#fff"/><path d="M229.38 121.23h211v40h-211z" fill="#c7e8ac"/><path d="M19.38 161.23h121v40h-121zM140.38 161.23h89v40h-89z" fill="#fff"/><path d="M229.38 161.23h211v40h-211z" fill="#c7e8ac"/><path d="M19.38 121.23h121M140.38 121.23h89M229.38 121.23h211M19.38 121.23h121m-121 40h121M140.38 121.23h89m-89 40h89M229.38 121.23h211m-211 40h211M19.38 161.23h121M140.38 161.23h89M229.38 161.23h211M140.38 81.23v40M140.38 81.23v40m89-40v40M229.38 81.23v40M140.38 121.23v40M140.38 121.23v40m89-40v40M229.38 121.23v40M140.38 161.23v40M140.38 161.23v40m89-40v40M229.38 161.23v40M19.38 81.23h421v120h-421z" stroke="#000" fill="none"/><use xlink:href="#a" transform="matrix(1,0,0,1,24.380221565290128,86.23017229538067) translate(6.574999999999996 18.6)"/><use xlink:href="#b" transform="matrix(1,0,0,1,24.380221565290128,86.23017229538067) translate(89.42500000000001 18.6)"/><use xlink:href="#c" transform="matrix(1,0,0,1,145.38022156529013,86.23017229538067) translate(7.549999999999997 18.6)"/><use xlink:href="#d" transform="matrix(1,0,0,1,234.38022156529013,86.23017229538067) translate(9.374659528016451 18.47603947760679)"/><use xlink:href="#e" transform="matrix(1,0,0,1,234.38022156529013,86.23017229538067) translate(126.06337365823327 18.47603947760679)"/><use xlink:href="#f" transform="matrix(1,0,0,1,24.380221565290128,126.23017229538067) translate(50.5 18.6)"/><use xlink:href="#g" transform="matrix(1,0,0,1,145.38022156529013,126.23017229538067) translate(14.5 18.6)"/><use xlink:href="#h" transform="matrix(1,0,0,1,234.38022156529013,126.23017229538067) translate(85.5 18.6)"/><use xlink:href="#i" transform="matrix(1,0,0,1,24.380221565290128,166.23017229538067) translate(50.5 18.6)"/><use xlink:href="#j" transform="matrix(1,0,0,1,145.38022156529013,166.23017229538067) translate(15.175 18.6)"/><use xlink:href="#k" transform="matrix(1,0,0,1,234.38022156529013,166.23017229538067) translate(85.5 18.6)"/><path d="M19.38 320.9h130v41h-130zM149.38 320.9h120v41h-120zM269.38 320.9h151v41h-151zM420.38 320.9h170v41h-170z" fill="#b2b2b2"/><path d="M19.38 361.9h130v41h-130zM149.38 361.9h120v41h-120zM269.38 361.9h151v41h-151z" fill="#fff"/><path d="M420.38 361.9h170v41h-170z" fill="#e5e5e5"/><path d="M19.38 402.92h130v41h-130zM149.38 402.92h120v41h-120zM269.38 402.92h151v41h-151z" fill="#fff"/><path d="M420.38 402.92h170v41h-170z" fill="#e5e5e5"/><path d="M19.38 443.93h130v41h-130zM149.38 443.93h120v41h-120zM269.38 443.93h151v41h-151z" fill="#fff"/><path d="M420.38 443.93h170v41h-170z" fill="#e5e5e5"/><path d="M19.38 484.94h130v41h-130zM149.38 484.94h120v41h-120zM269.38 484.94h151v41h-151z" fill="#fff"/><path d="M420.38 484.94h170v41h-170z" fill="#e5e5e5"/><path d="M19.38 361.9h130M149.38 361.9h120M269.38 361.9h151M420.38 361.9h170M19.38 361.9h130m-130 41h130M149.38 361.9h120m-120 41h120M269.38 361.9h151m-151 41h151M420.38 361.9h170m-170 41h170M19.38 402.92h130m-130 41h130M149.38 402.92h120m-120 41h120M269.38 402.92h151m-151 41h151M420.38 402.92h170m-170 41h170M19.38 443.93h130m-130 41h130M149.38 443.93h120m-120 41h120M269.38 443.93h151m-151 41h151M420.38 443.93h170m-170 41h170M19.38 484.94h130M149.38 484.94h120M269.38 484.94h151M420.38 484.94h170M149.38 320.9v41M149.38 320.9v41m120-41v41M269.38 320.9v41m151-41v41M420.38 320.9v41M149.38 361.9v41M149.38 361.9v41m120-41v41M269.38 361.9v41m151-41v41M420.38 361.9v41M149.38 402.92v41M149.38 402.92v41m120-41v41M269.38 402.92v41m151-41v41M420.38 402.92v41M149.38 443.93v41M149.38 443.93v41m120-41v41M269.38 443.93v41m151-41v41M420.38 443.93v41M149.38 484.94v41M149.38 484.94v41m120-41v41M269.38 484.94v41m151-41v41M420.38 484.94v41M19.38 320.9h571v205.05h-571z" stroke="#000" fill="none"/><use xlink:href="#l" transform="matrix(1,0,0,1,24.38022156529007,325.8910347535671) translate(12.024999999999999 19.1)"/><use xlink:href="#b" transform="matrix(1,0,0,1,24.38022156529007,325.8910347535671) translate(92.975 19.1)"/><use xlink:href="#a" transform="matrix(1,0,0,1,154.38022156529007,325.8910347535671) translate(6.074999999999996 19.1)"/><use xlink:href="#b" transform="matrix(1,0,0,1,154.38022156529007,325.8910347535671) translate(88.92500000000001 19.1)"/><use xlink:href="#m" transform="matrix(1,0,0,1,274.38022156529007,325.8910347535671) translate(34.574999999999996 19.1)"/><use xlink:href="#f" transform="matrix(1,0,0,1,24.38022156529007,366.9036220605958) translate(55 19.1)"/><use xlink:href="#f" transform="matrix(1,0,0,1,154.38022156529007,366.9036220605958) translate(50 19.1)"/><use xlink:href="#n" transform="matrix(1,0,0,1,274.38022156529007,366.9036220605958) translate(5.5 19.1)"/><use xlink:href="#o" transform="matrix(1,0,0,1,274.38022156529007,366.9036220605958) translate(90.5 19.1)"/><use xlink:href="#i" transform="matrix(1,0,0,1,24.38022156529007,407.91620936762445) translate(55 19.1)"/><use xlink:href="#f" transform="matrix(1,0,0,1,154.38022156529007,407.91620936762445) translate(50 19.1)"/><use xlink:href="#n" transform="matrix(1,0,0,1,274.38022156529007,407.91620936762445) translate(6.174999999999997 19.1)"/><use xlink:href="#p" transform="matrix(1,0,0,1,274.38022156529007,407.91620936762445) translate(91.175 19.1)"/><use xlink:href="#q" transform="matrix(1,0,0,1,425.38022156529007,325.8910347535671) translate(11.0102720347208 18.97603947760679)"/><use xlink:href="#r" transform="matrix(1,0,0,1,425.38022156529007,325.8910347535671) translate(89.17288195479568 18.97603947760679)"/><use xlink:href="#s" transform="matrix(1,0,0,1,425.38022156529007,366.9036220605958) translate(65 19.1)"/><use xlink:href="#h" transform="matrix(1,0,0,1,425.38022156529007,407.91620936762445) translate(65 19.1)"/><use xlink:href="#t" transform="matrix(1,0,0,1,24.38022156529007,448.92879667465314) translate(55 19.1)"/><use xlink:href="#i" transform="matrix(1,0,0,1,154.38022156529007,448.92879667465314) translate(50 19.1)"/><use xlink:href="#n" transform="matrix(1,0,0,1,274.38022156529007,448.92879667465314) translate(6.174999999999997 19.1)"/><use xlink:href="#u" transform="matrix(1,0,0,1,274.38022156529007,448.92879667465314) translate(91.175 19.1)"/><use xlink:href="#v" transform="matrix(1,0,0,1,425.38022156529007,448.92879667465314) translate(70 19.1)"/><use xlink:href="#w" transform="matrix(1,0,0,1,24.38022156529007,489.94138398168184) translate(55 19.1)"/><use xlink:href="#i" transform="matrix(1,0,0,1,154.38022156529007,489.94138398168184) translate(50 19.1)"/><use xlink:href="#n" transform="matrix(1,0,0,1,274.38022156529007,489.94138398168184) translate(5.5 19.1)"/><use xlink:href="#x" transform="matrix(1,0,0,1,274.38022156529007,489.94138398168184) translate(90.5 19.1)"/><use xlink:href="#k" transform="matrix(1,0,0,1,425.38022156529007,489.94138398168184) translate(65 19.1)"/><path d="M539.56 121.4H672.9V261H539.56z" stroke="#000" stroke-width="3" fill="#a3d977"/><use xlink:href="#y" transform="matrix(1,0,0,1,544.563505628714,126.41345635880448) translate(39.525 14.600000000000003)"/><use xlink:href="#z" transform="matrix(1,0,0,1,544.563505628714,126.41345635880448) translate(43.525 36.2)"/><use xlink:href="#A" transform="matrix(1,0,0,1,544.563505628714,126.41345635880448) translate(44.525 57.800000000000004)"/><use xlink:href="#B" transform="matrix(1,0,0,1,544.563505628714,126.41345635880448) translate(45.05 79.40000000000002)"/><use xlink:href="#C" transform="matrix(1,0,0,1,544.563505628714,126.41345635880448) translate(50.05 79.40000000000002)"/><use xlink:href="#D" transform="matrix(1,0,0,1,544.563505628714,126.41345635880448) translate(45 101.00000000000001)"/><use xlink:href="#E" transform="matrix(1,0,0,1,544.563505628714,126.41345635880448) translate(54.5 122.60000000000001)"/><path d="M590.88 335.3h15.35v-54.55" fill="none"/><path d="M590.88 335.3h11.65m3.7-7.95v-23.3m0-11.65v-11.65" stroke="#000" stroke-width="2" fill="none"/><path d="M590.88 336.3h-.5v-2h.5zM610.87 280.02h-9.28l4.63-14.27z"/><path d="M612.24 281.02h-12.02l6-18.5zm-9.27-2h6.52L606.22 269z"/><path d="M606.23 119.9V99.35h-147.1" fill="none"/><path d="M606.23 119.9v-9.3m0-9.32v-1.94h-16.7m-9.3 0h-18.64m-9.32 0h-18.64m-9.3 0H505.7m-9.32 0h-18.63m-9.32 0h-9.3" stroke="#000" stroke-width="2" fill="none"/><path d="M607.23 121.4h-2v-1.5h2zM458.38 103.98l-14.26-4.64 14.26-4.63z"/><path d="M459.38 105.35l-18.5-6 18.5-6.02zm-12.03-6l10.03 3.25v-6.52z"/><path d="M79.56 19.38h300.48V82.7H79.56z" stroke="#000" stroke-opacity="0" stroke-width="2" fill="#fff" fill-opacity="0"/><use xlink:href="#F" transform="matrix(1,0,0,1,84.56350562871393,24.3802215652901) translate(8.709876543209873 31.444444444444443)"/><use xlink:href="#G" transform="matrix(1,0,0,1,84.56350562871393,24.3802215652901) translate(151.67283950617283 31.444444444444443)"/><use xlink:href="#H" transform="matrix(1,0,0,1,84.56350562871393,24.3802215652901) translate(221.91975308641975 31.444444444444443)"/><path d="M159.56 261.4h240v60h-240z" stroke="#000" stroke-opacity="0" stroke-width="2" fill="#fff" fill-opacity="0"/><use xlink:href="#I" transform="matrix(1,0,0,1,164.56350562871387,266.4134563588045) translate(48.39506172839505 29.444444444444443)"/><path d="M779.13 81.73h100v40h-100zM879.13 81.73h110v40h-110zM989.13 81.73h110v40h-110z" fill="#b2b2b2"/><path d="M1099.13 81.73h131v40h-131z" fill="#a3d977"/><path d="M779.13 121.57h100v40h-100zM879.13 121.57h110v40h-110zM989.13 121.57h110v40h-110z" fill="#fff"/><path d="M1099.13 121.57h131v40h-131z" fill="#c7e8ac"/><path d="M779.13 161.4h100v40h-100zM879.13 161.4h110v40h-110zM989.13 161.4h110v40h-110z" fill="#fff"/><path d="M1099.13 161.4h131v40h-131z" fill="#c7e8ac"/><path d="M779.13 121.73h100M879.13 121.73h110M989.13 121.73h110M1099.13 121.73h131M779.13 121.57h100m-100 40h100M879.13 121.57h110m-110 40h110M989.13 121.57h110m-110 40h110M1099.13 121.57h131m-131 40h131M779.13 161.4h100M879.13 161.4h110M989.13 161.4h110M1099.13 161.4h131M879.13 81.73v40M879.13 81.73v40m110-40v40M989.13 81.73v40m110-40v40M1099.13 81.73v40M879.13 121.57v40M879.13 121.57v40m110-40v40M989.13 121.57v40m110-40v40M1099.13 121.57v40M879.13 161.4v40M879.13 161.4v40m110-40v40M989.13 161.4v40m110-40v40M1099.13 161.4v40M779.13 81.73h451v119.5h-451z" stroke="#000" fill="none"/><use xlink:href="#J" transform="matrix(1,0,0,1,784.1283106123908,86.73399420117903) translate(15.575 18.6)"/><use xlink:href="#K" transform="matrix(1,0,0,1,784.1283106123908,86.73399420117903) translate(64.425 18.6)"/><use xlink:href="#L" transform="matrix(1,0,0,1,884.1283106123908,86.73399420117903) translate(15.574999999999996 18.6)"/><use xlink:href="#M" transform="matrix(1,0,0,1,884.1283106123908,86.73399420117903) translate(53.525 18.6)"/><use xlink:href="#N" transform="matrix(1,0,0,1,994.1283106123908,86.73399420117903) translate(20.1 18.6)"/><use xlink:href="#M" transform="matrix(1,0,0,1,994.1283106123908,86.73399420117903) translate(49 18.6)"/><use xlink:href="#O" transform="matrix(1,0,0,1,784.1283106123908,126.56605356591294) translate(17.525 18.6)"/><use xlink:href="#P" transform="matrix(1,0,0,1,884.1283106123908,126.56605356591294) translate(31 18.6)"/><use xlink:href="#Q" transform="matrix(1,0,0,1,994.1283106123908,126.56605356591294) translate(34.55 18.6)"/><use xlink:href="#R" transform="matrix(1,0,0,1,784.1283106123908,166.39811293064682) translate(13 18.6)"/><use xlink:href="#S" transform="matrix(1,0,0,1,884.1283106123908,166.39811293064682) translate(33 18.6)"/><use xlink:href="#T" transform="matrix(1,0,0,1,994.1283106123908,166.39811293064682) translate(35.025 18.6)"/><use xlink:href="#U" transform="matrix(1,0,0,1,1104.1283106123908,86.73399420117903) translate(16.204635823552373 18.47603947760679)"/><use xlink:href="#V" transform="matrix(1,0,0,1,1104.1283106123908,126.56605356591294) translate(33.55 18.6)"/><use xlink:href="#W" transform="matrix(1,0,0,1,1104.1283106123908,126.56605356591294) translate(58.55 18.6)"/><use xlink:href="#X" transform="matrix(1,0,0,1,1104.1283106123908,166.39811293064682) translate(33.55 18.6)"/><use xlink:href="#W" transform="matrix(1,0,0,1,1104.1283106123908,166.39811293064682) translate(58.55 18.6)"/><path d="M779.38 321.87h91v41h-91zM870.38 321.87h110v41h-110zM980.38 321.87h120v41h-120zM1100.38 321.87h229v41h-229z" fill="#b2b2b2"/><path d="M779.38 362.57h91v41h-91zM870.38 362.57h110v41h-110zM980.38 362.57h120v41h-120z" fill="#fff"/><path d="M1100.38 362.57h229v41h-229z" fill="#e5e5e5"/><path d="M779.38 403.26h91v41h-91zM870.38 403.26h110v41h-110zM980.38 403.26h120v41h-120z" fill="#fff"/><path d="M1100.38 403.26h229v41h-229z" fill="#e5e5e5"/><path d="M779.38 443.96h91v41h-91zM870.38 443.96h110v41h-110zM980.38 443.96h120v41h-120z" fill="#fff"/><path d="M1100.38 443.96h229v41h-229z" fill="#e5e5e5"/><path d="M779.38 484.65h91v41h-91zM870.38 484.65h110v41h-110zM980.38 484.65h120v41h-120z" fill="#fff"/><path d="M1100.38 484.65h229v41h-229z" fill="#e5e5e5"/><path d="M779.38 362.87h91M870.38 362.87h110M980.38 362.87h120M1100.38 362.87h229M779.38 362.57h91m-91 41h91M870.38 362.57h110m-110 41h110M980.38 362.57h120m-120 41h120M1100.38 362.57h229m-229 41h229M779.38 403.26h91m-91 41h91M870.38 403.26h110m-110 41h110M980.38 403.26h120m-120 41h120M1100.38 403.26h229m-229 41h229M779.38 443.96h91m-91 41h91M870.38 443.96h110m-110 41h110M980.38 443.96h120m-120 41h120M1100.38 443.96h229m-229 41h229M779.38 484.65h91M870.38 484.65h110M980.38 484.65h120M1100.38 484.65h229M870.38 321.87v41M870.38 321.87v41m110-41v41M980.38 321.87v41m120-41v41M1100.38 321.87v41M870.38 362.57v41M870.38 362.57v41m110-41v41M980.38 362.57v41m120-41v41M1100.38 362.57v41M870.38 403.26v41M870.38 403.26v41m110-41v41M980.38 403.26v41m120-41v41M1100.38 403.26v41M870.38 443.96v41M870.38 443.96v41m110-41v41M980.38 443.96v41m120-41v41M1100.38 443.96v41M870.38 484.65v41M870.38 484.65v41m110-41v41M980.38 484.65v41m120-41v41M1100.38 484.65v41M779.38 321.87h550v203.48h-550z" stroke="#000" fill="none"/><use xlink:href="#Y" transform="matrix(1,0,0,1,784.3800043444176,326.8689739352677) translate(15.399999999999999 19.1)"/><use xlink:href="#b" transform="matrix(1,0,0,1,784.3800043444176,326.8689739352677) translate(50.6 19.1)"/><use xlink:href="#J" transform="matrix(1,0,0,1,875.3800043444176,326.8689739352677) translate(20.575 19.1)"/><use xlink:href="#K" transform="matrix(1,0,0,1,875.3800043444176,326.8689739352677) translate(69.425 19.1)"/><use xlink:href="#Z" transform="matrix(1,0,0,1,985.3800043444176,326.8689739352677) translate(36.025 19.1)"/><use xlink:href="#f" transform="matrix(1,0,0,1,784.3800043444176,367.5654684580726) translate(35.5 19.1)"/><use xlink:href="#O" transform="matrix(1,0,0,1,875.3800043444176,367.5654684580726) translate(22.525 19.1)"/><use xlink:href="#aa" transform="matrix(1,0,0,1,985.3800043444176,367.5654684580726) translate(15 19.1)"/><use xlink:href="#i" transform="matrix(1,0,0,1,784.3800043444176,408.26196298087746) translate(35.5 19.1)"/><use xlink:href="#O" transform="matrix(1,0,0,1,875.3800043444176,408.26196298087746) translate(22.525 19.1)"/><use xlink:href="#aa" transform="matrix(1,0,0,1,985.3800043444176,408.26196298087746) translate(15 19.1)"/><use xlink:href="#ab" transform="matrix(1,0,0,1,1105.3800043444176,326.8689739352677) translate(46.37608865318225 18.97603947760679)"/><use xlink:href="#ac" transform="matrix(1,0,0,1,1105.3800043444176,326.8689739352677) translate(128.30440800733118 18.97603947760679)"/><use xlink:href="#ad" transform="matrix(1,0,0,1,1105.3800043444176,367.5654684580726) translate(87.55 19.1)"/><use xlink:href="#W" transform="matrix(1,0,0,1,1105.3800043444176,367.5654684580726) translate(102.55 19.1)"/><use xlink:href="#V" transform="matrix(1,0,0,1,1105.3800043444176,408.26196298087746) translate(82.55 19.1)"/><use xlink:href="#W" transform="matrix(1,0,0,1,1105.3800043444176,408.26196298087746) translate(107.55 19.1)"/><g><use xlink:href="#t" transform="matrix(1,0,0,1,784.3800043444176,448.95845750368227) translate(35.5 19.1)"/></g><g><use xlink:href="#R" transform="matrix(1,0,0,1,875.3800043444176,448.95845750368227) translate(18 19.1)"/></g><g><use xlink:href="#aa" transform="matrix(1,0,0,1,985.3800043444176,448.95845750368227) translate(15 19.1)"/></g><g><use xlink:href="#X" transform="matrix(1,0,0,1,1105.3800043444176,448.95845750368227) translate(82.55 19.1)"/><use xlink:href="#W" transform="matrix(1,0,0,1,1105.3800043444176,448.95845750368227) translate(107.55 19.1)"/></g><g><use xlink:href="#w" transform="matrix(1,0,0,1,784.3800043444176,489.65495202648714) translate(35.5 19.1)"/></g><g><use xlink:href="#R" transform="matrix(1,0,0,1,875.3800043444176,489.65495202648714) translate(18 19.1)"/></g><g><use xlink:href="#ae" transform="matrix(1,0,0,1,985.3800043444176,489.65495202648714) translate(15 19.1)"/></g><g><use xlink:href="#af" transform="matrix(1,0,0,1,1105.3800043444176,489.65495202648714) translate(87.55 19.1)"/><use xlink:href="#W" transform="matrix(1,0,0,1,1105.3800043444176,489.65495202648714) translate(102.55 19.1)"/></g><path d="M1339.56 121.4h133.34V261h-133.34z" stroke="#000" stroke-width="3" fill="#a3d977"/><g><use xlink:href="#y" transform="matrix(1,0,0,1,1344.563505628714,126.41345635880447) translate(39.525 14.600000000000003)"/><use xlink:href="#z" transform="matrix(1,0,0,1,1344.563505628714,126.41345635880447) translate(43.525 36.2)"/><use xlink:href="#A" transform="matrix(1,0,0,1,1344.563505628714,126.41345635880447) translate(44.525 57.800000000000004)"/><use xlink:href="#B" transform="matrix(1,0,0,1,1344.563505628714,126.41345635880447) translate(45.05 79.40000000000002)"/><use xlink:href="#C" transform="matrix(1,0,0,1,1344.563505628714,126.41345635880447) translate(50.05 79.40000000000002)"/><use xlink:href="#D" transform="matrix(1,0,0,1,1344.563505628714,126.41345635880447) translate(45 101.00000000000001)"/><use xlink:href="#E" transform="matrix(1,0,0,1,1344.563505628714,126.41345635880447) translate(54.5 122.60000000000001)"/></g><path d="M1329.88 336h76.35v-55.25" fill="none"/><path d="M1329.88 336h10.97m10.96 0h21.94m10.97 0h21.53v-.42m0-10.97V302.7m0-10.96v-10.97" stroke="#000" stroke-width="2" fill="none"/><path d="M1329.88 337h-.5v-2h.5zM1410.87 280.02h-9.28l4.63-14.27z"/><path d="M1412.24 281.02h-12.02l6-18.5zm-9.27-2h6.52l-3.27-10.03z"/><path d="M1406.23 119.9V100h-157.37" fill="none"/><path d="M1406.23 119.9v-9.84m0-9.85V100h-19.47m-9.85 0h-19.7m-9.84 0h-19.7m-9.85 0h-19.7m-9.84 0h-19.7m-9.85 0h-9.84" stroke="#000" stroke-width="2" fill="none"/><path d="M1407.23 121.4h-2v-1.5h2zM1248.13 104.6l-14.27-4.62 14.27-4.64z"/><path d="M1249.13 106l-18.5-6.02 18.5-6zm-12.03-6.02l10.03 3.26v-6.52z"/><path d="M839.75 21.23h273v59.63h-273z" stroke="#000" stroke-opacity="0" stroke-width="2" fill="#fff" fill-opacity="0"/><g><use xlink:href="#ag" transform="matrix(1,0,0,1,844.7467896921377,26.230172295380676) translate(16.314814814814824 29.444444444444443)"/><use xlink:href="#G" transform="matrix(1,0,0,1,844.7467896921377,26.230172295380676) translate(116.0679012345679 29.444444444444443)"/><use xlink:href="#H" transform="matrix(1,0,0,1,844.7467896921377,26.230172295380676) translate(186.31481481481478 29.444444444444443)"/></g><path d="M919.56 261.4h240v60h-240z" stroke="#000" stroke-opacity="0" stroke-width="2" fill="#fff" fill-opacity="0"/><g><use xlink:href="#ah" transform="matrix(1,0,0,1,924.5635056287138,266.4134563588045) translate(78.0246913580247 29.444444444444443)"/></g><path d="M230.75 534.02h1039.43v170.43H230.75z" stroke="#000" stroke-opacity="0" stroke-width="2" fill="#fff" fill-opacity="0"/><g><use xlink:href="#ai" transform="matrix(1,0,0,1,235.75038160144015,539.0191100461263) translate(9.893380892429548 53.76123478764008)"/><use xlink:href="#aj" transform="matrix(1,0,0,1,235.75038160144015,539.0191100461263) translate(45.470793494430666 53.76123478764008)"/><use xlink:href="#ak" transform="matrix(1,0,0,1,235.75038160144015,539.0191100461263) translate(158.21925347321502 53.76123478764008)"/><use xlink:href="#al" transform="matrix(1,0,0,1,235.75038160144015,539.0191100461263) translate(180.50155781684828 53.76123478764008)"/><use xlink:href="#am" transform="matrix(1,0,0,1,235.75038160144015,539.0191100461263) translate(316.12651692176274 53.76123478764008)"/><use xlink:href="#an" transform="matrix(1,0,0,1,235.75038160144015,539.0191100461263) translate(381.4136686486082 53.76123478764008)"/><use xlink:href="#ao" transform="matrix(1,0,0,1,235.75038160144015,539.0191100461263) translate(509.0912725376268 53.76123478764008)"/><use xlink:href="#ap" transform="matrix(1,0,0,1,235.75038160144015,539.0191100461263) translate(633.797902514161 53.76123478764008)"/><use xlink:href="#aq" transform="matrix(1,0,0,1,235.75038160144015,539.0191100461263) translate(675.317262941131 53.76123478764008)"/><use xlink:href="#ar" transform="matrix(1,0,0,1,235.75038160144015,539.0191100461263) translate(746.5463624929453 53.76123478764008)"/><use xlink:href="#as" transform="matrix(1,0,0,1,235.75038160144015,539.0191100461263) translate(791.1109711802119 53.76123478764008)"/><use xlink:href="#at" transform="matrix(1,0,0,1,235.75038160144015,539.0191100461263) translate(846.6760169662916 53.76123478764008)"/><use xlink:href="#au" transform="matrix(1,0,0,1,235.75038160144015,539.0191100461263) translate(953.2597060766707 53.76123478764008)"/><use xlink:href="#av" transform="matrix(1,0,0,1,235.75038160144015,539.0191100461263) translate(982.9694452015151 53.76123478764008)"/><use xlink:href="#aw" transform="matrix(1,0,0,1,235.75038160144015,539.0191100461263) translate(9.785886182021784 85.847753042472)"/><use xlink:href="#ax" transform="matrix(1,0,0,1,235.75038160144015,539.0191100461263) translate(127.0650813773449 85.847753042472)"/><use xlink:href="#ay" transform="matrix(1,0,0,1,235.75038160144015,539.0191100461263) translate(223.54745918527695 85.847753042472)"/><use xlink:href="#az" transform="matrix(1,0,0,1,235.75038160144015,539.0191100461263) translate(279.847414826857 85.847753042472)"/><use xlink:href="#aA" transform="matrix(1,0,0,1,235.75038160144015,539.0191100461263) translate(307.997392647647 85.847753042472)"/><use xlink:href="#aB" transform="matrix(1,0,0,1,235.75038160144015,539.0191100461263) translate(342.0150439455938 85.847753042472)"/><use xlink:href="#aC" transform="matrix(1,0,0,1,235.75038160144015,539.0191100461263) translate(430.99571262450263 85.847753042472)"/><use xlink:href="#aD" transform="matrix(1,0,0,1,235.75038160144015,539.0191100461263) translate(569.0717252072168 85.847753042472)"/><use xlink:href="#ap" transform="matrix(1,0,0,1,235.75038160144015,539.0191100461263) translate(646.242772584 85.847753042472)"/><use xlink:href="#aE" transform="matrix(1,0,0,1,235.75038160144015,539.0191100461263) translate(687.76213301097 85.847753042472)"/><use xlink:href="#ar" transform="matrix(1,0,0,1,235.75038160144015,539.0191100461263) translate(787.0669360357622 85.847753042472)"/><use xlink:href="#aF" transform="matrix(1,0,0,1,235.75038160144015,539.0191100461263) translate(831.6315447230288 85.847753042472)"/><use xlink:href="#aG" transform="matrix(1,0,0,1,235.75038160144015,539.0191100461263) translate(904.3461312310853 85.847753042472)"/><use xlink:href="#au" transform="matrix(1,0,0,1,235.75038160144015,539.0191100461263) translate(975.6495051307118 85.847753042472)"/><use xlink:href="#aH" transform="matrix(1,0,0,1,235.75038160144015,539.0191100461263) translate(1005.359244255556 85.847753042472)"/><use xlink:href="#aI" transform="matrix(1,0,0,1,235.75038160144015,539.0191100461263) translate(136.1265518104223 117.9342712973039)"/><use xlink:href="#aJ" transform="matrix(1,0,0,1,235.75038160144015,539.0191100461263) translate(231.19771700992425 117.9342712973039)"/><use xlink:href="#aK" transform="matrix(1,0,0,1,235.75038160144015,539.0191100461263) translate(260.9074561347686 117.9342712973039)"/><use xlink:href="#aL" transform="matrix(1,0,0,1,235.75038160144015,539.0191100461263) translate(363.18323307204537 117.9342712973039)"/><use xlink:href="#ap" transform="matrix(1,0,0,1,235.75038160144015,539.0191100461263) translate(447.70744088222756 117.9342712973039)"/><use xlink:href="#aj" transform="matrix(1,0,0,1,235.75038160144015,539.0191100461263) translate(489.2268013091975 117.9342712973039)"/><use xlink:href="#aM" transform="matrix(1,0,0,1,235.75038160144015,539.0191100461263) translate(601.9752612879819 117.9342712973039)"/><use xlink:href="#aN" transform="matrix(1,0,0,1,235.75038160144015,539.0191100461263) translate(655.9727121473866 117.9342712973039)"/><use xlink:href="#aO" transform="matrix(1,0,0,1,235.75038160144015,539.0191100461263) translate(749.4841160428341 117.9342712973039)"/><use xlink:href="#aP" transform="matrix(1,0,0,1,235.75038160144015,539.0191100461263) translate(813.2115064656252 117.9342712973039)"/></g><defs><path d="M212-179c-10-28-35-45-73-45-59 0-87 40-87 99 0 60 29 101 89 101 43 0 62-24 78-52l27 14C228-24 195 4 139 4 59 4 22-46 18-125c-6-104 99-153 187-111 19 9 31 26 39 46" id="aQ"/><path d="M84 4C-5 8 30-112 23-190h32v120c0 31 7 50 39 49 72-2 45-101 50-169h31l1 190h-30c-1-10 1-25-2-33-11 22-28 36-60 37" id="aR"/><path d="M135-143c-3-34-86-38-87 0 15 53 115 12 119 90S17 21 10-45l28-5c4 36 97 45 98 0-10-56-113-15-118-90-4-57 82-63 122-42 12 7 21 19 24 35" id="aS"/><path d="M59-47c-2 24 18 29 38 22v24C64 9 27 4 27-40v-127H5v-23h24l9-43h21v43h35v23H59v120" id="aT"/><path d="M100-194c62-1 85 37 85 99 1 63-27 99-86 99S16-35 15-95c0-66 28-99 85-99zM99-20c44 1 53-31 53-75 0-43-8-75-51-75s-53 32-53 75 10 74 51 75" id="aU"/><path d="M210-169c-67 3-38 105-44 169h-31v-121c0-29-5-50-35-48C34-165 62-65 56 0H25l-1-190h30c1 10-1 24 2 32 10-44 99-50 107 0 11-21 27-35 58-36 85-2 47 119 55 194h-31v-121c0-29-5-49-35-48" id="aV"/><path d="M100-194c63 0 86 42 84 106H49c0 40 14 67 53 68 26 1 43-12 49-29l28 8c-11 28-37 45-77 45C44 4 14-33 15-96c1-61 26-98 85-98zm52 81c6-60-76-77-97-28-3 7-6 17-6 28h103" id="aW"/><path d="M114-163C36-179 61-72 57 0H25l-1-190h30c1 12-1 29 2 39 6-27 23-49 58-41v29" id="aX"/><g id="a"><use transform="matrix(0.05,0,0,0.05,0,0)" xlink:href="#aQ"/><use transform="matrix(0.05,0,0,0.05,12.950000000000001,0)" xlink:href="#aR"/><use transform="matrix(0.05,0,0,0.05,22.950000000000003,0)" xlink:href="#aS"/><use transform="matrix(0.05,0,0,0.05,31.950000000000003,0)" xlink:href="#aT"/><use transform="matrix(0.05,0,0,0.05,36.95,0)" xlink:href="#aU"/><use transform="matrix(0.05,0,0,0.05,46.95,0)" xlink:href="#aV"/><use transform="matrix(0.05,0,0,0.05,61.900000000000006,0)" xlink:href="#aW"/><use transform="matrix(0.05,0,0,0.05,71.9,0)" xlink:href="#aX"/></g><path d="M33 0v-248h34V0H33" id="aY"/><path d="M85-194c31 0 48 13 60 33l-1-100h32l1 261h-30c-2-10 0-23-3-31C134-8 116 4 85 4 32 4 16-35 15-94c0-66 23-100 70-100zm9 24c-40 0-46 34-46 75 0 40 6 74 45 74 42 0 51-32 51-76 0-42-9-74-50-73" id="aZ"/><g id="b"><use transform="matrix(0.05,0,0,0.05,0,0)" xlink:href="#aY"/><use transform="matrix(0.05,0,0,0.05,5,0)" xlink:href="#aZ"/></g><path d="M209 0H11v-25l151-195H24v-28h176v25L50-27h159V0" id="ba"/><path d="M24-231v-30h32v30H24zM24 0v-190h32V0H24" id="bb"/><path d="M115-194c55 1 70 41 70 98S169 2 115 4C84 4 66-9 55-30l1 105H24l-1-265h31l2 30c10-21 28-34 59-34zm-8 174c40 0 45-34 45-75s-6-73-45-74c-42 0-51 32-51 76 0 43 10 73 51 73" id="bc"/><path d="M96-169c-40 0-48 33-48 73s9 75 48 75c24 0 41-14 43-38l32 2c-6 37-31 61-74 61-59 0-76-41-82-99-10-93 101-131 147-64 4 7 5 14 7 22l-32 3c-4-21-16-35-41-35" id="bd"/><g id="c"><use transform="matrix(0.05,0,0,0.05,0,0)" xlink:href="#ba"/><use transform="matrix(0.05,0,0,0.05,10.950000000000001,0)" xlink:href="#bb"/><use transform="matrix(0.05,0,0,0.05,14.9,0)" xlink:href="#bc"/><use transform="matrix(0.05,0,0,0.05,24.900000000000002,0)" xlink:href="#bd"/><use transform="matrix(0.05,0,0,0.05,33.900000000000006,0)" xlink:href="#aU"/><use transform="matrix(0.05,0,0,0.05,43.900000000000006,0)" xlink:href="#aZ"/><use transform="matrix(0.05,0,0,0.05,53.900000000000006,0)" xlink:href="#aW"/></g><path d="M240 0l2-218c-23 76-54 145-80 218h-23L58-218 59 0H30v-248h44l77 211c21-75 51-140 76-211h43V0h-30" id="be"/><path d="M141-36C126-15 110 5 73 4 37 3 15-17 15-53c-1-64 63-63 125-63 3-35-9-54-41-54-24 1-41 7-42 31l-33-3c5-37 33-52 76-52 45 0 72 20 72 64v82c-1 20 7 32 28 27v20c-31 9-61-2-59-35zM48-53c0 20 12 33 32 33 41-3 63-29 60-74-43 2-92-5-92 41" id="bf"/><path d="M141 0L90-78 38 0H4l68-98-65-92h35l48 74 47-74h35l-64 92 68 98h-35" id="bg"/><path d="M87 75C49 33 22-17 22-94c0-76 28-126 65-167h31c-38 41-64 92-64 168S80 34 118 75H87" id="bh"/><path d="M30-248c87 1 191-15 191 75 0 78-77 80-158 76V0H30v-248zm33 125c57 0 124 11 124-50 0-59-68-47-124-48v98" id="bi"/><path d="M106-169C34-169 62-67 57 0H25v-261h32l-1 103c12-21 28-36 61-36 89 0 53 116 60 194h-32v-121c2-32-8-49-39-48" id="bj"/><g id="d"><use transform="matrix(0.04827832607787208,0,0,0.04827832607787208,0,0)" xlink:href="#be"/><use transform="matrix(0.04827832607787208,0,0,0.04827832607787208,14.435219497283752,0)" xlink:href="#bf"/><use transform="matrix(0.04827832607787208,0,0,0.04827832607787208,24.09088471285817,0)" xlink:href="#bg"/><use transform="matrix(0.04827832607787208,0,0,0.04827832607787208,32.780983406875144,0)" xlink:href="#bh"/><use transform="matrix(0.04827832607787208,0,0,0.04827832607787208,38.52610421014192,0)" xlink:href="#bi"/><use transform="matrix(0.04827832607787208,0,0,0.04827832607787208,50.11290246883122,0)" xlink:href="#aR"/><use transform="matrix(0.04827832607787208,0,0,0.04827832607787208,59.76856768440564,0)" xlink:href="#aX"/><use transform="matrix(0.04827832607787208,0,0,0.04827832607787208,65.51368848767241,0)" xlink:href="#bd"/><use transform="matrix(0.04827832607787208,0,0,0.04827832607787208,74.20378718168939,0)" xlink:href="#bj"/><use transform="matrix(0.04827832607787208,0,0,0.04827832607787208,83.85945239726381,0)" xlink:href="#bf"/><use transform="matrix(0.04827832607787208,0,0,0.04827832607787208,93.51511761283822,0)" xlink:href="#aS"/><use transform="matrix(0.04827832607787208,0,0,0.04827832607787208,102.20521630685519,0)" xlink:href="#aW"/></g><path d="M205 0l-28-72H64L36 0H1l101-248h38L239 0h-34zm-38-99l-47-123c-12 45-31 82-46 123h93" id="bk"/><path d="M117-194c89-4 53 116 60 194h-32v-121c0-31-8-49-39-48C34-167 62-67 57 0H25l-1-190h30c1 10-1 24 2 32 11-22 29-35 61-36" id="bl"/><path d="M33-261c38 41 65 92 65 168S71 34 33 75H2C39 34 66-17 66-93S39-220 2-261h31" id="bm"/><g id="e"><use transform="matrix(0.04827832607787208,0,0,0.04827832607787208,0,0)" xlink:href="#bk"/><use transform="matrix(0.04827832607787208,0,0,0.04827832607787208,11.5867982586893,0)" xlink:href="#aV"/><use transform="matrix(0.04827832607787208,0,0,0.04827832607787208,26.022017755973053,0)" xlink:href="#aU"/><use transform="matrix(0.04827832607787208,0,0,0.04827832607787208,35.67768297154747,0)" xlink:href="#aR"/><use transform="matrix(0.04827832607787208,0,0,0.04827832607787208,45.333348187121885,0)" xlink:href="#bl"/><use transform="matrix(0.04827832607787208,0,0,0.04827832607787208,54.9890134026963,0)" xlink:href="#aT"/><use transform="matrix(0.04827832607787208,0,0,0.04827832607787208,59.81684601048351,0)" xlink:href="#bm"/></g><path d="M27 0v-27h64v-190l-56 39v-29l58-41h29v221h61V0H27" id="bn"/><use transform="matrix(0.05,0,0,0.05,0,0)" xlink:href="#bn" id="f"/><path d="M110-160c48 1 74 30 74 79 0 53-28 85-80 85-65 0-83-55-86-122-5-90 50-162 133-122 14 7 22 21 27 39l-31 6c-5-40-67-38-82-6-9 19-15 44-15 74 11-20 30-34 60-33zm-7 138c34 0 49-23 49-58s-16-56-50-56c-29 0-50 16-49 49 1 36 15 65 50 65" id="bo"/><path d="M101-251c68 0 85 55 85 127S166 4 100 4C33 4 14-52 14-124c0-73 17-127 87-127zm-1 229c47 0 54-49 54-102s-4-102-53-102c-51 0-55 48-55 102 0 53 5 102 54 102" id="bp"/><path d="M99-251c64 0 84 50 84 122C183-37 130 33 47-8c-14-7-20-23-25-40l30-5c6 39 69 39 84 7 9-19 16-44 16-74-10 22-31 35-62 35-49 0-73-33-73-83 0-54 28-83 82-83zm-1 141c31-1 51-18 51-49 0-36-14-67-51-67-34 0-49 23-49 58 0 34 15 58 49 58" id="bq"/><g id="g"><use transform="matrix(0.05,0,0,0.05,0,0)" xlink:href="#bo"/><use transform="matrix(0.05,0,0,0.05,10,0)" xlink:href="#bp"/><use transform="matrix(0.05,0,0,0.05,20,0)" xlink:href="#bp"/><use transform="matrix(0.05,0,0,0.05,30,0)" xlink:href="#bq"/><use transform="matrix(0.05,0,0,0.05,40,0)" xlink:href="#bn"/></g><path d="M194-70c0 46-34 64-81 66v29H91V-4C42-5 12-27 4-67l30-6c5 28 25 41 57 43v-87c-38-9-76-20-76-67 1-42 33-58 76-59v-23h22v23c45 0 67 20 76 56l-31 6c-5-23-18-35-45-37v78c41 10 81 20 81 70zm-81 41c51 7 71-66 19-77-6-2-12-4-19-6v83zM91-219c-47-6-63 57-18 69 6 2 12 3 18 5v-74" id="br"/><path d="M101-251c82-7 93 87 43 132L82-64C71-53 59-42 53-27h129V0H18c2-99 128-94 128-182 0-28-16-43-45-43s-46 15-49 41l-32-3c6-41 34-60 81-64" id="bs"/><g id="h"><use transform="matrix(0.05,0,0,0.05,0,0)" xlink:href="#br"/><use transform="matrix(0.05,0,0,0.05,10,0)" xlink:href="#bn"/><use transform="matrix(0.05,0,0,0.05,20,0)" xlink:href="#bs"/></g><use transform="matrix(0.05,0,0,0.05,0,0)" xlink:href="#bs" id="i"/><g id="j"><use transform="matrix(0.05,0,0,0.05,0,0)" xlink:href="#bp"/><use transform="matrix(0.05,0,0,0.05,10,0)" xlink:href="#bs"/><use transform="matrix(0.05,0,0,0.05,20,0)" xlink:href="#bn"/><use transform="matrix(0.05,0,0,0.05,28.649999999999995,0)" xlink:href="#bn"/><use transform="matrix(0.05,0,0,0.05,38.65,0)" xlink:href="#bo"/></g><path d="M126-127c33 6 58 20 58 59 0 88-139 92-164 29-3-8-5-16-6-25l32-3c6 27 21 44 54 44 32 0 52-15 52-46 0-38-36-46-79-43v-28c39 1 72-4 72-42 0-27-17-43-46-43-28 0-47 15-49 41l-32-3c6-42 35-63 81-64 48-1 79 21 79 65 0 36-21 52-52 59" id="bt"/><g id="k"><use transform="matrix(0.05,0,0,0.05,0,0)" xlink:href="#br"/><use transform="matrix(0.05,0,0,0.05,10,0)" xlink:href="#bt"/><use transform="matrix(0.05,0,0,0.05,20,0)" xlink:href="#bt"/></g><g id="l"><use transform="matrix(0.05,0,0,0.05,0,0)" xlink:href="#bi"/><use transform="matrix(0.05,0,0,0.05,12,0)" xlink:href="#aR"/><use transform="matrix(0.05,0,0,0.05,22,0)" xlink:href="#aX"/><use transform="matrix(0.05,0,0,0.05,27.950000000000003,0)" xlink:href="#bd"/><use transform="matrix(0.05,0,0,0.05,36.95,0)" xlink:href="#bj"/><use transform="matrix(0.05,0,0,0.05,46.95,0)" xlink:href="#bf"/><use transform="matrix(0.05,0,0,0.05,56.95,0)" xlink:href="#aS"/><use transform="matrix(0.05,0,0,0.05,65.95,0)" xlink:href="#aW"/></g><path d="M30-248c118-7 216 8 213 122C240-48 200 0 122 0H30v-248zM63-27c89 8 146-16 146-99s-60-101-146-95v194" id="bu"/><g id="m"><use transform="matrix(0.05,0,0,0.05,0,0)" xlink:href="#bu"/><use transform="matrix(0.05,0,0,0.05,12.950000000000001,0)" xlink:href="#bf"/><use transform="matrix(0.05,0,0,0.05,22.950000000000003,0)" xlink:href="#aT"/><use transform="matrix(0.05,0,0,0.05,27.950000000000003,0)" xlink:href="#aW"/><use transform="matrix(0.05,0,0,0.05,37.95,0)" xlink:href="#aT"/><use transform="matrix(0.05,0,0,0.05,42.95,0)" xlink:href="#bb"/><use transform="matrix(0.05,0,0,0.05,46.900000000000006,0)" xlink:href="#aV"/><use transform="matrix(0.05,0,0,0.05,61.85,0)" xlink:href="#aW"/></g><path d="M0 4l72-265h28L28 4H0" id="bv"/><path d="M64 0c3-98 48-159 88-221H18v-27h164v26C143-157 98-101 97 0H64" id="bw"/><g id="n"><use transform="matrix(0.05,0,0,0.05,0,0)" xlink:href="#bn"/><use transform="matrix(0.05,0,0,0.05,10,0)" xlink:href="#bs"/><use transform="matrix(0.05,0,0,0.05,20,0)" xlink:href="#bv"/><use transform="matrix(0.05,0,0,0.05,25,0)" xlink:href="#bn"/><use transform="matrix(0.05,0,0,0.05,35,0)" xlink:href="#bv"/><use transform="matrix(0.05,0,0,0.05,40,0)" xlink:href="#bs"/><use transform="matrix(0.05,0,0,0.05,50,0)" xlink:href="#bp"/><use transform="matrix(0.05,0,0,0.05,60,0)" xlink:href="#bn"/><use transform="matrix(0.05,0,0,0.05,70,0)" xlink:href="#bw"/></g><path d="M33-154v-36h34v36H33zM33 0v-36h34V0H33" id="bx"/><path d="M54-142c48-35 137-8 131 61C196 18 31 33 14-55l32-4c7 23 22 37 52 37 35-1 51-22 54-58 4-55-73-65-99-34H22l8-134h141v27H59" id="by"/><g id="o"><use transform="matrix(0.05,0,0,0.05,0,0)" xlink:href="#bn"/><use transform="matrix(0.05,0,0,0.05,10,0)" xlink:href="#bp"/><use transform="matrix(0.05,0,0,0.05,20,0)" xlink:href="#bx"/><use transform="matrix(0.05,0,0,0.05,25,0)" xlink:href="#by"/><use transform="matrix(0.05,0,0,0.05,35,0)" xlink:href="#by"/></g><g id="p"><use transform="matrix(0.05,0,0,0.05,0,0)" xlink:href="#bn"/><use transform="matrix(0.05,0,0,0.05,8.65,0)" xlink:href="#bn"/><use transform="matrix(0.05,0,0,0.05,18.65,0)" xlink:href="#bx"/><use transform="matrix(0.05,0,0,0.05,23.65,0)" xlink:href="#bp"/><use transform="matrix(0.05,0,0,0.05,33.65,0)" xlink:href="#by"/></g><g id="q"><use transform="matrix(0.04827832607787208,0,0,0.04827832607787208,0,0)" xlink:href="#bi"/><use transform="matrix(0.04827832607787208,0,0,0.04827832607787208,11.5867982586893,0)" xlink:href="#aR"/><use transform="matrix(0.04827832607787208,0,0,0.04827832607787208,21.242463474263715,0)" xlink:href="#aX"/><use transform="matrix(0.04827832607787208,0,0,0.04827832607787208,26.987584277530495,0)" xlink:href="#bd"/><use transform="matrix(0.04827832607787208,0,0,0.04827832607787208,35.67768297154747,0)" xlink:href="#bj"/><use transform="matrix(0.04827832607787208,0,0,0.04827832607787208,45.333348187121885,0)" xlink:href="#bf"/><use transform="matrix(0.04827832607787208,0,0,0.04827832607787208,54.9890134026963,0)" xlink:href="#aS"/><use transform="matrix(0.04827832607787208,0,0,0.04827832607787208,63.679112096713276,0)" xlink:href="#aW"/></g><g id="r"><use transform="matrix(0.04827832607787208,0,0,0.04827832607787208,0,0)" xlink:href="#bk"/><use transform="matrix(0.04827832607787208,0,0,0.04827832607787208,11.5867982586893,0)" xlink:href="#aV"/><use transform="matrix(0.04827832607787208,0,0,0.04827832607787208,26.022017755973053,0)" xlink:href="#aU"/><use transform="matrix(0.04827832607787208,0,0,0.04827832607787208,35.67768297154747,0)" xlink:href="#aR"/><use transform="matrix(0.04827832607787208,0,0,0.04827832607787208,45.333348187121885,0)" xlink:href="#bl"/><use transform="matrix(0.04827832607787208,0,0,0.04827832607787208,54.9890134026963,0)" xlink:href="#aT"/></g><g id="s"><use transform="matrix(0.05,0,0,0.05,0,0)" xlink:href="#br"/><use transform="matrix(0.05,0,0,0.05,10,0)" xlink:href="#bn"/><use transform="matrix(0.05,0,0,0.05,20,0)" xlink:href="#bp"/></g><use transform="matrix(0.05,0,0,0.05,0,0)" xlink:href="#bt" id="t"/><g id="u"><use transform="matrix(0.05,0,0,0.05,0,0)" xlink:href="#bn"/><use transform="matrix(0.05,0,0,0.05,8.65,0)" xlink:href="#bn"/><use transform="matrix(0.05,0,0,0.05,18.65,0)" xlink:href="#bx"/><use transform="matrix(0.05,0,0,0.05,23.65,0)" xlink:href="#bp"/><use transform="matrix(0.05,0,0,0.05,33.65,0)" xlink:href="#bo"/></g><g id="v"><use transform="matrix(0.05,0,0,0.05,0,0)" xlink:href="#br"/><use transform="matrix(0.05,0,0,0.05,10,0)" xlink:href="#by"/></g><path d="M155-56V0h-30v-56H8v-25l114-167h33v167h35v25h-35zm-30-156c-27 46-58 90-88 131h88v-131" id="bz"/><use transform="matrix(0.05,0,0,0.05,0,0)" xlink:href="#bz" id="w"/><g id="x"><use transform="matrix(0.05,0,0,0.05,0,0)" xlink:href="#bn"/><use transform="matrix(0.05,0,0,0.05,10,0)" xlink:href="#bs"/><use transform="matrix(0.05,0,0,0.05,20,0)" xlink:href="#bx"/><use transform="matrix(0.05,0,0,0.05,25,0)" xlink:href="#bp"/><use transform="matrix(0.05,0,0,0.05,35,0)" xlink:href="#bp"/></g><g id="y"><use transform="matrix(0.05,0,0,0.05,0,0)" xlink:href="#be"/><use transform="matrix(0.05,0,0,0.05,14.950000000000001,0)" xlink:href="#aW"/><use transform="matrix(0.05,0,0,0.05,24.950000000000003,0)" xlink:href="#bf"/><use transform="matrix(0.05,0,0,0.05,34.95,0)" xlink:href="#bl"/></g><path d="M185-189c-5-48-123-54-124 2 14 75 158 14 163 119 3 78-121 87-175 55-17-10-28-26-33-46l33-7c5 56 141 63 141-1 0-78-155-14-162-118-5-82 145-84 179-34 5 7 8 16 11 25" id="bA"/><g id="z"><use transform="matrix(0.05,0,0,0.05,0,0)" xlink:href="#bA"/><use transform="matrix(0.05,0,0,0.05,12,0)" xlink:href="#aR"/><use transform="matrix(0.05,0,0,0.05,22,0)" xlink:href="#aV"/></g><path d="M230 0l2-204L168 0h-37L68-204 70 0H24v-248h70l56 185 57-185h69V0h-46" id="bB"/><path d="M133-34C117-15 103 5 69 4 32 3 11-16 11-54c-1-60 55-63 116-61 1-26-3-47-28-47-18 1-26 9-28 27l-52-2c7-38 36-58 82-57s74 22 75 68l1 82c-1 14 12 18 25 15v27c-30 8-71 5-69-32zm-48 3c29 0 43-24 42-57-32 0-66-3-65 30 0 17 8 27 23 27" id="bC"/><path d="M144 0l-44-69L55 0H2l70-98-66-92h53l41 62 40-62h54l-67 91 71 99h-54" id="bD"/><g id="A"><use transform="matrix(0.05,0,0,0.05,0,0)" xlink:href="#bB"/><use transform="matrix(0.05,0,0,0.05,14.950000000000001,0)" xlink:href="#bC"/><use transform="matrix(0.05,0,0,0.05,24.950000000000003,0)" xlink:href="#bD"/></g><g id="C"><use transform="matrix(0.05,0,0,0.05,0,0)" xlink:href="#be"/><use transform="matrix(0.05,0,0,0.05,14.950000000000001,0)" xlink:href="#bb"/><use transform="matrix(0.05,0,0,0.05,18.900000000000002,0)" xlink:href="#bl"/></g><path d="M30 0v-248h33v221h125V0H30" id="bE"/><g id="D"><use transform="matrix(0.05,0,0,0.05,0,0)" xlink:href="#bE"/><use transform="matrix(0.05,0,0,0.05,10,0)" xlink:href="#bf"/><use transform="matrix(0.05,0,0,0.05,20,0)" xlink:href="#aS"/><use transform="matrix(0.05,0,0,0.05,29,0)" xlink:href="#aT"/></g><path d="M33 0v-38h34V0H33" id="bF"/><g id="E"><use transform="matrix(0.05,0,0,0.05,0,0)" xlink:href="#bF"/><use transform="matrix(0.05,0,0,0.05,5,0)" xlink:href="#bF"/><use transform="matrix(0.05,0,0,0.05,10,0)" xlink:href="#bF"/></g><path d="M142-158h-39l-4-90h48zm-75 0H28l-4-90h48" id="bG"/><path d="M67-125c0 53 21 87 73 88 37 1 54-22 65-47l45 17C233-25 199 4 140 4 58 4 20-42 15-125 8-235 124-281 211-232c18 10 29 29 36 50l-46 12c-8-25-30-41-62-41-52 0-71 34-72 86" id="bH"/><path d="M85 4C-2 5 27-109 22-190h50c7 57-23 150 33 157 60-5 35-97 40-157h50l1 190h-47c-2-12 1-28-3-38-12 25-28 42-61 42" id="bI"/><path d="M137-138c1-29-70-34-71-4 15 46 118 7 119 86 1 83-164 76-172 9l43-7c4 19 20 25 44 25 33 8 57-30 24-41C81-84 22-81 20-136c-2-80 154-74 161-7" id="bJ"/><path d="M115-3C79 11 28 4 28-45v-112H4v-33h27l15-45h31v45h36v33H77v99c-1 23 16 31 38 25v30" id="bK"/><path d="M110-194c64 0 96 36 96 99 0 64-35 99-97 99-61 0-95-36-95-99 0-62 34-99 96-99zm-1 164c35 0 45-28 45-65 0-40-10-65-43-65-34 0-45 26-45 65 0 36 10 65 43 65" id="bL"/><path d="M220-157c-53 9-28 100-34 157h-49v-107c1-27-5-49-29-50C55-147 81-57 75 0H25l-1-190h47c2 12-1 28 3 38 10-53 101-56 108 0 13-22 24-43 59-42 82 1 51 116 57 194h-49v-107c-1-25-5-48-29-50" id="bM"/><path d="M185-48c-13 30-37 53-82 52C43 2 14-33 14-96s30-98 90-98c62 0 83 45 84 108H66c0 31 8 55 39 56 18 0 30-7 34-22zm-45-69c5-46-57-63-70-21-2 6-4 13-4 21h74" id="bN"/><path d="M135-150c-39-12-60 13-60 57V0H25l-1-190h47c2 13-1 29 3 40 6-28 27-53 61-41v41" id="bO"/><g id="F"><use transform="matrix(0.06172839506172839,0,0,0.06172839506172839,0,0)" xlink:href="#bG"/><use transform="matrix(0.06172839506172839,0,0,0.06172839506172839,10.493827160493826,0)" xlink:href="#bH"/><use transform="matrix(0.06172839506172839,0,0,0.06172839506172839,26.48148148148148,0)" xlink:href="#bI"/><use transform="matrix(0.06172839506172839,0,0,0.06172839506172839,40,0)" xlink:href="#bJ"/><use transform="matrix(0.06172839506172839,0,0,0.06172839506172839,52.34567901234568,0)" xlink:href="#bK"/><use transform="matrix(0.06172839506172839,0,0,0.06172839506172839,59.691358024691354,0)" xlink:href="#bL"/><use transform="matrix(0.06172839506172839,0,0,0.06172839506172839,73.20987654320987,0)" xlink:href="#bM"/><use transform="matrix(0.06172839506172839,0,0,0.06172839506172839,92.96296296296296,0)" xlink:href="#bN"/><use transform="matrix(0.06172839506172839,0,0,0.06172839506172839,105.30864197530865,0)" xlink:href="#bO"/><use transform="matrix(0.06172839506172839,0,0,0.06172839506172839,113.95061728395062,0)" xlink:href="#bJ"/><use transform="matrix(0.06172839506172839,0,0,0.06172839506172839,126.2962962962963,0)" xlink:href="#bG"/></g><path d="M177-190C167-65 218 103 67 71c-23-6-38-20-44-43l32-5c15 47 100 32 89-28v-30C133-14 115 1 83 1 29 1 15-40 15-95c0-56 16-97 71-98 29-1 48 16 59 35 1-10 0-23 2-32h30zM94-22c36 0 50-32 50-73 0-42-14-75-50-75-39 0-46 34-46 75s6 73 46 73" id="bP"/><g id="G"><use transform="matrix(0.06172839506172839,0,0,0.06172839506172839,0,0)" xlink:href="#bh"/><use transform="matrix(0.06172839506172839,0,0,0.06172839506172839,7.345679012345679,0)" xlink:href="#aT"/><use transform="matrix(0.06172839506172839,0,0,0.06172839506172839,13.518518518518519,0)" xlink:href="#bf"/><use transform="matrix(0.06172839506172839,0,0,0.06172839506172839,25.864197530864196,0)" xlink:href="#aX"/><use transform="matrix(0.06172839506172839,0,0,0.06172839506172839,33.20987654320987,0)" xlink:href="#bP"/><use transform="matrix(0.06172839506172839,0,0,0.06172839506172839,45.55555555555555,0)" xlink:href="#aW"/><use transform="matrix(0.06172839506172839,0,0,0.06172839506172839,57.90123456790123,0)" xlink:href="#aT"/></g><path d="M179-190L93 31C79 59 56 82 12 73V49c39 6 53-20 64-50L1-190h34L92-34l54-156h33" id="bQ"/><g id="H"><use transform="matrix(0.06172839506172839,0,0,0.06172839506172839,0,0)" xlink:href="#aW"/><use transform="matrix(0.06172839506172839,0,0,0.06172839506172839,12.345679012345679,0)" xlink:href="#bl"/><use transform="matrix(0.06172839506172839,0,0,0.06172839506172839,24.691358024691358,0)" xlink:href="#aT"/><use transform="matrix(0.06172839506172839,0,0,0.06172839506172839,30.864197530864196,0)" xlink:href="#bb"/><use transform="matrix(0.06172839506172839,0,0,0.06172839506172839,35.74074074074074,0)" xlink:href="#aT"/><use transform="matrix(0.06172839506172839,0,0,0.06172839506172839,41.91358024691358,0)" xlink:href="#bQ"/><use transform="matrix(0.06172839506172839,0,0,0.06172839506172839,53.0246913580247,0)" xlink:href="#bm"/></g><path d="M24-248c93 1 206-16 204 79-1 75-69 88-152 82V0H24v-248zm52 121c47 0 100 7 100-41 0-47-54-39-100-39v80" id="bR"/><path d="M190-63c-7 42-38 67-86 67-59 0-84-38-90-98-12-110 154-137 174-36l-49 2c-2-19-15-32-35-32-30 0-35 28-38 64-6 74 65 87 74 30" id="bS"/><path d="M114-157C55-157 80-60 75 0H25v-261h50l-1 109c12-26 28-41 61-42 86-1 58 113 63 194h-50c-7-57 23-157-34-157" id="bT"/><g id="I"><use transform="matrix(0.06172839506172839,0,0,0.06172839506172839,0,0)" xlink:href="#bG"/><use transform="matrix(0.06172839506172839,0,0,0.06172839506172839,10.493827160493826,0)" xlink:href="#bR"/><use transform="matrix(0.06172839506172839,0,0,0.06172839506172839,25.30864197530864,0)" xlink:href="#bI"/><use transform="matrix(0.06172839506172839,0,0,0.06172839506172839,38.82716049382716,0)" xlink:href="#bO"/><use transform="matrix(0.06172839506172839,0,0,0.06172839506172839,47.46913580246913,0)" xlink:href="#bS"/><use transform="matrix(0.06172839506172839,0,0,0.06172839506172839,59.81481481481481,0)" xlink:href="#bT"/><use transform="matrix(0.06172839506172839,0,0,0.06172839506172839,73.33333333333333,0)" xlink:href="#bC"/><use transform="matrix(0.06172839506172839,0,0,0.06172839506172839,85.67901234567901,0)" xlink:href="#bJ"/><use transform="matrix(0.06172839506172839,0,0,0.06172839506172839,98.0246913580247,0)" xlink:href="#bN"/><use transform="matrix(0.06172839506172839,0,0,0.06172839506172839,110.37037037037038,0)" xlink:href="#bJ"/><use transform="matrix(0.06172839506172839,0,0,0.06172839506172839,122.71604938271606,0)" xlink:href="#bG"/></g><path d="M63-220v92h138v28H63V0H30v-248h175v28H63" id="bU"/><path d="M24 0v-261h32V0H24" id="bV"/><g id="J"><use transform="matrix(0.05,0,0,0.05,0,0)" xlink:href="#bU"/><use transform="matrix(0.05,0,0,0.05,10.950000000000001,0)" xlink:href="#bV"/><use transform="matrix(0.05,0,0,0.05,14.9,0)" xlink:href="#bb"/><use transform="matrix(0.05,0,0,0.05,18.85,0)" xlink:href="#bP"/><use transform="matrix(0.05,0,0,0.05,28.85,0)" xlink:href="#bj"/><use transform="matrix(0.05,0,0,0.05,38.85,0)" xlink:href="#aT"/></g><path d="M158-156l-14 65h45v19h-49L124 0h-19l15-72H56L41 0H22l15-72H2v-19h39l14-65H11v-19h48l15-71h20l-16 71h64l16-71h19l-16 71h37v19h-40zm-83 0L61-91h63l14-65H75" id="bW"/><use transform="matrix(0.05,0,0,0.05,0,0)" xlink:href="#bW" id="K"/><g id="L"><use transform="matrix(0.05,0,0,0.05,0,0)" xlink:href="#bu"/><use transform="matrix(0.05,0,0,0.05,12.950000000000001,0)" xlink:href="#aW"/><use transform="matrix(0.05,0,0,0.05,22.950000000000003,0)" xlink:href="#bc"/></g><g id="M"><use transform="matrix(0.05,0,0,0.05,0,0)" xlink:href="#aQ"/><use transform="matrix(0.05,0,0,0.05,12.950000000000001,0)" xlink:href="#bb"/><use transform="matrix(0.05,0,0,0.05,16.900000000000002,0)" xlink:href="#aT"/><use transform="matrix(0.05,0,0,0.05,21.900000000000002,0)" xlink:href="#bQ"/></g><g id="N"><use transform="matrix(0.05,0,0,0.05,0,0)" xlink:href="#bk"/><use transform="matrix(0.05,0,0,0.05,12,0)" xlink:href="#aX"/><use transform="matrix(0.05,0,0,0.05,17.95,0)" xlink:href="#aX"/></g><path d="M232-93c-1 65-40 97-104 97C67 4 28-28 28-90v-158h33c8 89-33 224 67 224 102 0 64-133 71-224h33v155" id="bX"/><g id="O"><use transform="matrix(0.05,0,0,0.05,0,0)" xlink:href="#bX"/><use transform="matrix(0.05,0,0,0.05,12.950000000000001,0)" xlink:href="#bk"/><use transform="matrix(0.05,0,0,0.05,24.950000000000003,0)" xlink:href="#bs"/><use transform="matrix(0.05,0,0,0.05,34.95,0)" xlink:href="#bp"/><use transform="matrix(0.05,0,0,0.05,44.95,0)" xlink:href="#bt"/></g><path d="M160-131c35 5 61 23 61 61C221 17 115-2 30 0v-248c76 3 177-17 177 60 0 33-19 50-47 57zm-97-11c50-1 110 9 110-42 0-47-63-36-110-37v79zm0 115c55-2 124 14 124-45 0-56-70-42-124-44v89" id="bY"/><path d="M140-251c81 0 123 46 123 126C263-46 219 4 140 4 59 4 17-45 17-125s42-126 123-126zm0 227c63 0 89-41 89-101s-29-99-89-99c-61 0-89 39-89 99S79-25 140-24" id="bZ"/><g id="P"><use transform="matrix(0.05,0,0,0.05,0,0)" xlink:href="#bY"/><use transform="matrix(0.05,0,0,0.05,12,0)" xlink:href="#bZ"/><use transform="matrix(0.05,0,0,0.05,26,0)" xlink:href="#bA"/></g><path d="M197 0v-115H63V0H30v-248h33v105h134v-105h34V0h-34" id="ca"/><g id="Q"><use transform="matrix(0.05,0,0,0.05,0,0)" xlink:href="#aQ"/><use transform="matrix(0.05,0,0,0.05,12.950000000000001,0)" xlink:href="#ca"/><use transform="matrix(0.05,0,0,0.05,25.900000000000002,0)" xlink:href="#aY"/></g><g id="R"><use transform="matrix(0.05,0,0,0.05,0,0)" xlink:href="#bk"/><use transform="matrix(0.05,0,0,0.05,12,0)" xlink:href="#bk"/><use transform="matrix(0.05,0,0,0.05,24,0)" xlink:href="#bn"/><use transform="matrix(0.05,0,0,0.05,34,0)" xlink:href="#bp"/><use transform="matrix(0.05,0,0,0.05,44,0)" xlink:href="#bs"/><use transform="matrix(0.05,0,0,0.05,54,0)" xlink:href="#bz"/></g><path d="M195 0l-74-108L45 0H8l94-129-87-119h37l69 98 67-98h37l-84 118L233 0h-38" id="cb"/><g id="S"><use transform="matrix(0.05,0,0,0.05,0,0)" xlink:href="#bE"/><use transform="matrix(0.05,0,0,0.05,10,0)" xlink:href="#bk"/><use transform="matrix(0.05,0,0,0.05,22,0)" xlink:href="#cb"/></g><g id="T"><use transform="matrix(0.05,0,0,0.05,0,0)" xlink:href="#aY"/><use transform="matrix(0.05,0,0,0.05,5,0)" xlink:href="#bk"/><use transform="matrix(0.05,0,0,0.05,17,0)" xlink:href="#bu"/></g><g id="U"><use transform="matrix(0.04827832607787208,0,0,0.04827832607787208,0,0)" xlink:href="#be"/><use transform="matrix(0.04827832607787208,0,0,0.04827832607787208,14.435219497283752,0)" xlink:href="#bf"/><use transform="matrix(0.04827832607787208,0,0,0.04827832607787208,24.09088471285817,0)" xlink:href="#bg"/><use transform="matrix(0.04827832607787208,0,0,0.04827832607787208,32.780983406875144,0)" xlink:href="#bh"/><use transform="matrix(0.04827832607787208,0,0,0.04827832607787208,38.52610421014192,0)" xlink:href="#bu"/><use transform="matrix(0.04827832607787208,0,0,0.04827832607787208,51.03019066431079,0)" xlink:href="#aW"/><use transform="matrix(0.04827832607787208,0,0,0.04827832607787208,60.6858558798852,0)" xlink:href="#bV"/><use transform="matrix(0.04827832607787208,0,0,0.04827832607787208,64.4998436400371,0)" xlink:href="#bf"/><use transform="matrix(0.04827832607787208,0,0,0.04827832607787208,74.15550885561152,0)" xlink:href="#bQ"/><use transform="matrix(0.04827832607787208,0,0,0.04827832607787208,82.84560754962848,0)" xlink:href="#bm"/></g><g id="V"><use transform="matrix(0.05,0,0,0.05,0,0)" xlink:href="#bt"/><use transform="matrix(0.05,0,0,0.05,10,0)" xlink:href="#bp"/></g><g id="W"><use transform="matrix(0.05,0,0,0.05,0,0)" xlink:href="#aV"/><use transform="matrix(0.05,0,0,0.05,14.950000000000001,0)" xlink:href="#bb"/><use transform="matrix(0.05,0,0,0.05,18.900000000000002,0)" xlink:href="#bl"/></g><g id="X"><use transform="matrix(0.05,0,0,0.05,0,0)" xlink:href="#bn"/><use transform="matrix(0.05,0,0,0.05,10,0)" xlink:href="#bp"/></g><path d="M127-220V0H93v-220H8v-28h204v28h-85" id="cc"/><g id="Y"><use transform="matrix(0.05,0,0,0.05,0,0)" xlink:href="#cc"/><use transform="matrix(0.05,0,0,0.05,10.3,0)" xlink:href="#aX"/><use transform="matrix(0.05,0,0,0.05,16.25,0)" xlink:href="#bb"/><use transform="matrix(0.05,0,0,0.05,20.2,0)" xlink:href="#bc"/></g><g id="Z"><use transform="matrix(0.05,0,0,0.05,0,0)" xlink:href="#bu"/><use transform="matrix(0.05,0,0,0.05,12.950000000000001,0)" xlink:href="#bf"/><use transform="matrix(0.05,0,0,0.05,22.950000000000003,0)" xlink:href="#aT"/><use transform="matrix(0.05,0,0,0.05,27.950000000000003,0)" xlink:href="#aW"/></g><g id="aa"><use transform="matrix(0.05,0,0,0.05,0,0)" xlink:href="#bn"/><use transform="matrix(0.05,0,0,0.05,10,0)" xlink:href="#bs"/><use transform="matrix(0.05,0,0,0.05,20,0)" xlink:href="#bv"/><use transform="matrix(0.05,0,0,0.05,25,0)" xlink:href="#bn"/><use transform="matrix(0.05,0,0,0.05,35,0)" xlink:href="#bv"/><use transform="matrix(0.05,0,0,0.05,40,0)" xlink:href="#bs"/><use transform="matrix(0.05,0,0,0.05,50,0)" xlink:href="#bp"/><use transform="matrix(0.05,0,0,0.05,60,0)" xlink:href="#bn"/><use transform="matrix(0.05,0,0,0.05,70,0)" xlink:href="#bw"/></g><g id="ab"><use transform="matrix(0.04827832607787208,0,0,0.04827832607787208,0,0)" xlink:href="#bu"/><use transform="matrix(0.04827832607787208,0,0,0.04827832607787208,12.504086454168869,0)" xlink:href="#aW"/><use transform="matrix(0.04827832607787208,0,0,0.04827832607787208,22.159751669743287,0)" xlink:href="#bc"/><use transform="matrix(0.04827832607787208,0,0,0.04827832607787208,31.815416885317703,0)" xlink:href="#bf"/><use transform="matrix(0.04827832607787208,0,0,0.04827832607787208,41.47108210089212,0)" xlink:href="#aX"/><use transform="matrix(0.04827832607787208,0,0,0.04827832607787208,47.2162029041589,0)" xlink:href="#aT"/><use transform="matrix(0.04827832607787208,0,0,0.04827832607787208,52.044035511946106,0)" xlink:href="#aR"/><use transform="matrix(0.04827832607787208,0,0,0.04827832607787208,61.69970072752052,0)" xlink:href="#aX"/><use transform="matrix(0.04827832607787208,0,0,0.04827832607787208,67.4448215307873,0)" xlink:href="#aW"/></g><g id="ac"><use transform="matrix(0.04827832607787208,0,0,0.04827832607787208,0,0)" xlink:href="#bu"/><use transform="matrix(0.04827832607787208,0,0,0.04827832607787208,12.504086454168869,0)" xlink:href="#aW"/><use transform="matrix(0.04827832607787208,0,0,0.04827832607787208,22.159751669743287,0)" xlink:href="#bV"/><use transform="matrix(0.04827832607787208,0,0,0.04827832607787208,25.973739429895186,0)" xlink:href="#bf"/><use transform="matrix(0.04827832607787208,0,0,0.04827832607787208,35.6294046454696,0)" xlink:href="#bQ"/></g><use transform="matrix(0.05,0,0,0.05,0,0)" xlink:href="#bp" id="ad"/><g id="ae"><use transform="matrix(0.05,0,0,0.05,0,0)" xlink:href="#bn"/><use transform="matrix(0.05,0,0,0.05,10,0)" xlink:href="#bs"/><use transform="matrix(0.05,0,0,0.05,20,0)" xlink:href="#bv"/><use transform="matrix(0.05,0,0,0.05,25,0)" xlink:href="#bs"/><use transform="matrix(0.05,0,0,0.05,35,0)" xlink:href="#bv"/><use transform="matrix(0.05,0,0,0.05,40,0)" xlink:href="#bs"/><use transform="matrix(0.05,0,0,0.05,50,0)" xlink:href="#bp"/><use transform="matrix(0.05,0,0,0.05,60,0)" xlink:href="#bn"/><use transform="matrix(0.05,0,0,0.05,70,0)" xlink:href="#bw"/></g><use transform="matrix(0.05,0,0,0.05,0,0)" xlink:href="#by" id="af"/><path d="M76-208v77h127v40H76V0H24v-248h183v40H76" id="cd"/><path d="M25 0v-261h50V0H25" id="ce"/><path d="M25-224v-37h50v37H25zM25 0v-190h50V0H25" id="cf"/><path d="M195-6C206 82 75 100 31 46c-4-6-6-13-8-21l49-6c3 16 16 24 34 25 40 0 42-37 40-79-11 22-30 35-61 35-53 0-70-43-70-97 0-56 18-96 73-97 30 0 46 14 59 34l2-30h47zm-90-29c32 0 41-27 41-63 0-35-9-62-40-62-32 0-39 29-40 63 0 36 9 62 39 62" id="cg"/><g id="ag"><use transform="matrix(0.06172839506172839,0,0,0.06172839506172839,0,0)" xlink:href="#bG"/><use transform="matrix(0.06172839506172839,0,0,0.06172839506172839,10.493827160493826,0)" xlink:href="#cd"/><use transform="matrix(0.06172839506172839,0,0,0.06172839506172839,24.01234567901234,0)" xlink:href="#ce"/><use transform="matrix(0.06172839506172839,0,0,0.06172839506172839,30.18518518518518,0)" xlink:href="#cf"/><use transform="matrix(0.06172839506172839,0,0,0.06172839506172839,36.35802469135802,0)" xlink:href="#cg"/><use transform="matrix(0.06172839506172839,0,0,0.06172839506172839,49.87654320987654,0)" xlink:href="#bT"/><use transform="matrix(0.06172839506172839,0,0,0.06172839506172839,63.395061728395056,0)" xlink:href="#bK"/><use transform="matrix(0.06172839506172839,0,0,0.06172839506172839,70.74074074074073,0)" xlink:href="#bJ"/><use transform="matrix(0.06172839506172839,0,0,0.06172839506172839,83.08641975308642,0)" xlink:href="#bG"/></g><path d="M136-208V0H84v-208H4v-40h212v40h-80" id="ch"/><path d="M135-194c53 0 70 44 70 98 0 56-19 98-73 100-31 1-45-17-59-34 3 33 2 69 2 105H25l-1-265h48c2 10 0 23 3 31 11-24 29-35 60-35zM114-30c33 0 39-31 40-66 0-38-9-64-40-64-56 0-55 130 0 130" id="ci"/><g id="ah"><use transform="matrix(0.06172839506172839,0,0,0.06172839506172839,0,0)" xlink:href="#bG"/><use transform="matrix(0.06172839506172839,0,0,0.06172839506172839,10.493827160493826,0)" xlink:href="#ch"/><use transform="matrix(0.06172839506172839,0,0,0.06172839506172839,22.777777777777775,0)" xlink:href="#bO"/><use transform="matrix(0.06172839506172839,0,0,0.06172839506172839,31.41975308641975,0)" xlink:href="#cf"/><use transform="matrix(0.06172839506172839,0,0,0.06172839506172839,37.59259259259259,0)" xlink:href="#ci"/><use transform="matrix(0.06172839506172839,0,0,0.06172839506172839,51.11111111111111,0)" xlink:href="#bJ"/><use transform="matrix(0.06172839506172839,0,0,0.06172839506172839,63.456790123456784,0)" xlink:href="#bG"/></g><g id="ai"><use transform="matrix(0.0742743478121109,0,0,0.0742743478121109,0,0)" xlink:href="#cc"/><use transform="matrix(0.0742743478121109,0,0,0.0742743478121109,13.29510825836785,0)" xlink:href="#aU"/></g><g id="aj"><use transform="matrix(0.0742743478121109,0,0,0.0742743478121109,0,0)" xlink:href="#bd"/><use transform="matrix(0.0742743478121109,0,0,0.0742743478121109,13.369382606179961,0)" xlink:href="#bf"/><use transform="matrix(0.0742743478121109,0,0,0.0742743478121109,28.224252168602142,0)" xlink:href="#bV"/><use transform="matrix(0.0742743478121109,0,0,0.0742743478121109,34.091925645758906,0)" xlink:href="#bd"/><use transform="matrix(0.0742743478121109,0,0,0.0742743478121109,47.46130825193886,0)" xlink:href="#aR"/><use transform="matrix(0.0742743478121109,0,0,0.0742743478121109,62.31617781436105,0)" xlink:href="#bV"/><use transform="matrix(0.0742743478121109,0,0,0.0742743478121109,68.18385129151781,0)" xlink:href="#bf"/><use transform="matrix(0.0742743478121109,0,0,0.0742743478121109,83.03872085394,0)" xlink:href="#aT"/><use transform="matrix(0.0742743478121109,0,0,0.0742743478121109,90.46615563515108,0)" xlink:href="#aW"/></g><use transform="matrix(0.0742743478121109,0,0,0.0742743478121109,0,0)" xlink:href="#bf" id="ak"/><path d="M47-170H22l-4-78h33" id="cj"/><g id="al"><use transform="matrix(0.0742743478121109,0,0,0.0742743478121109,0,0)" xlink:href="#bd"/><use transform="matrix(0.0742743478121109,0,0,0.0742743478121109,13.369382606179961,0)" xlink:href="#aR"/><use transform="matrix(0.0742743478121109,0,0,0.0742743478121109,28.224252168602142,0)" xlink:href="#aS"/><use transform="matrix(0.0742743478121109,0,0,0.0742743478121109,41.5936347747821,0)" xlink:href="#aT"/><use transform="matrix(0.0742743478121109,0,0,0.0742743478121109,49.02106955599319,0)" xlink:href="#aU"/><use transform="matrix(0.0742743478121109,0,0,0.0742743478121109,63.875939118415374,0)" xlink:href="#aV"/><use transform="matrix(0.0742743478121109,0,0,0.0742743478121109,86.08396911423655,0)" xlink:href="#aW"/><use transform="matrix(0.0742743478121109,0,0,0.0742743478121109,100.93883867665872,0)" xlink:href="#aX"/><use transform="matrix(0.0742743478121109,0,0,0.0742743478121109,109.77748606629993,0)" xlink:href="#cj"/><use transform="matrix(0.0742743478121109,0,0,0.0742743478121109,114.82814171752345,0)" xlink:href="#aS"/></g><g id="am"><use transform="matrix(0.0742743478121109,0,0,0.0742743478121109,0,0)" xlink:href="#aV"/><use transform="matrix(0.0742743478121109,0,0,0.0742743478121109,22.208029995821157,0)" xlink:href="#aU"/><use transform="matrix(0.0742743478121109,0,0,0.0742743478121109,37.06289955824334,0)" xlink:href="#aS"/><use transform="matrix(0.0742743478121109,0,0,0.0742743478121109,50.4322821644233,0)" xlink:href="#aT"/></g><path d="M108 0H70L1-190h34L89-25l56-165h34" id="ck"/><g id="an"><use transform="matrix(0.0742743478121109,0,0,0.0742743478121109,0,0)" xlink:href="#aW"/><use transform="matrix(0.0742743478121109,0,0,0.0742743478121109,14.854869562422179,0)" xlink:href="#bg"/><use transform="matrix(0.0742743478121109,0,0,0.0742743478121109,28.224252168602142,0)" xlink:href="#bc"/><use transform="matrix(0.0742743478121109,0,0,0.0742743478121109,43.07912173102432,0)" xlink:href="#aW"/><use transform="matrix(0.0742743478121109,0,0,0.0742743478121109,57.933991293446496,0)" xlink:href="#bl"/><use transform="matrix(0.0742743478121109,0,0,0.0742743478121109,72.78886085586868,0)" xlink:href="#aS"/><use transform="matrix(0.0742743478121109,0,0,0.0742743478121109,86.15824346204862,0)" xlink:href="#bb"/><use transform="matrix(0.0742743478121109,0,0,0.0742743478121109,92.02591693920539,0)" xlink:href="#ck"/><use transform="matrix(0.0742743478121109,0,0,0.0742743478121109,105.39529954538534,0)" xlink:href="#aW"/></g><path d="M68-38c1 34 0 65-14 84H32c9-13 17-26 17-46H33v-38h35" id="cl"/><g id="ao"><use transform="matrix(0.0742743478121109,0,0,0.0742743478121109,0,0)" xlink:href="#bc"/><use transform="matrix(0.0742743478121109,0,0,0.0742743478121109,14.854869562422179,0)" xlink:href="#aR"/><use transform="matrix(0.0742743478121109,0,0,0.0742743478121109,29.709739124844358,0)" xlink:href="#aX"/><use transform="matrix(0.0742743478121109,0,0,0.0742743478121109,38.54838651448556,0)" xlink:href="#bd"/><use transform="matrix(0.0742743478121109,0,0,0.0742743478121109,51.91776912066552,0)" xlink:href="#bj"/><use transform="matrix(0.0742743478121109,0,0,0.0742743478121109,66.77263868308769,0)" xlink:href="#bf"/><use transform="matrix(0.0742743478121109,0,0,0.0742743478121109,81.62750824550987,0)" xlink:href="#aS"/><use transform="matrix(0.0742743478121109,0,0,0.0742743478121109,94.99689085168984,0)" xlink:href="#aW"/><use transform="matrix(0.0742743478121109,0,0,0.0742743478121109,109.85176041411202,0)" xlink:href="#cl"/></g><path d="M206 0h-36l-40-164L89 0H53L-1-190h32L70-26l43-164h34l41 164 42-164h31" id="cm"/><g id="ap"><use transform="matrix(0.0742743478121109,0,0,0.0742743478121109,0,0)" xlink:href="#cm"/><use transform="matrix(0.0742743478121109,0,0,0.0742743478121109,19.23705608333672,0)" xlink:href="#aW"/></g><g id="aq"><use transform="matrix(0.0742743478121109,0,0,0.0742743478121109,0,0)" xlink:href="#bf"/><use transform="matrix(0.0742743478121109,0,0,0.0742743478121109,14.854869562422179,0)" xlink:href="#bc"/><use transform="matrix(0.0742743478121109,0,0,0.0742743478121109,29.709739124844358,0)" xlink:href="#bc"/><use transform="matrix(0.0742743478121109,0,0,0.0742743478121109,44.564608687266535,0)" xlink:href="#bV"/><use transform="matrix(0.0742743478121109,0,0,0.0742743478121109,50.4322821644233,0)" xlink:href="#bQ"/></g><g id="ar"><use transform="matrix(0.0742743478121109,0,0,0.0742743478121109,0,0)" xlink:href="#aT"/><use transform="matrix(0.0742743478121109,0,0,0.0742743478121109,7.4274347812110895,0)" xlink:href="#bj"/><use transform="matrix(0.0742743478121109,0,0,0.0742743478121109,22.282304343633268,0)" xlink:href="#aW"/></g><path d="M305-1169c27 366 9 780 14 1169H99v-1349h347c49 189 108 371 150 564 12 56 15 107 23 166 33-270 117-487 176-730h335V0H908c5-390-13-801 16-1169-52 285-130 541-199 809H507c-70-267-148-525-202-809" id="cn"/><path d="M775-193C708-75 621 20 439 20 226 20 106-93 106-306c0-251 170-341 417-346l223-4c4-143-12-264-148-264-103 0-141 58-150 153l-293-14c37-219 194-321 455-321 263 0 418 130 417 390v392c1 84 5 161 89 160 21 0 42-2 62-6v152c-57 15-108 27-180 26-145 0-202-73-217-205h-6zm-256 17c168 0 234-139 227-325-166 4-347-25-347 173 0 94 33 152 120 152" id="co"/><path d="M874 0L612-392 348 0H49l406-559-387-523h303l241 354 240-354h305L770-562 1179 0H874" id="cp"/><g id="as"><use transform="matrix(0.013056037701347618,0,0,0.013056037701347618,0,0)" xlink:href="#cn"/><use transform="matrix(0.013056037701347618,0,0,0.013056037701347618,16.045870334956224,0)" xlink:href="#co"/><use transform="matrix(0.013056037701347618,0,0,0.013056037701347618,32.09174066991245,0)" xlink:href="#cp"/></g><g id="at"><use transform="matrix(0.0742743478121109,0,0,0.0742743478121109,0,0)" xlink:href="#bc"/><use transform="matrix(0.0742743478121109,0,0,0.0742743478121109,14.854869562422179,0)" xlink:href="#aX"/><use transform="matrix(0.0742743478121109,0,0,0.0742743478121109,23.693516952063376,0)" xlink:href="#bb"/><use transform="matrix(0.0742743478121109,0,0,0.0742743478121109,29.561190429220137,0)" xlink:href="#aV"/><use transform="matrix(0.0742743478121109,0,0,0.0742743478121109,51.7692204250413,0)" xlink:href="#bb"/><use transform="matrix(0.0742743478121109,0,0,0.0742743478121109,57.63689390219807,0)" xlink:href="#aT"/><use transform="matrix(0.0742743478121109,0,0,0.0742743478121109,65.06432868340914,0)" xlink:href="#bb"/><use transform="matrix(0.0742743478121109,0,0,0.0742743478121109,70.9320021605659,0)" xlink:href="#ck"/><use transform="matrix(0.0742743478121109,0,0,0.0742743478121109,84.30138476674585,0)" xlink:href="#aW"/></g><g id="au"><use transform="matrix(0.0742743478121109,0,0,0.0742743478121109,0,0)" xlink:href="#aT"/><use transform="matrix(0.0742743478121109,0,0,0.0742743478121109,7.4274347812110895,0)" xlink:href="#aU"/></g><g id="av"><use transform="matrix(0.0742743478121109,0,0,0.0742743478121109,0,0)" xlink:href="#aT"/><use transform="matrix(0.0742743478121109,0,0,0.0742743478121109,7.4274347812110895,0)" xlink:href="#bj"/><use transform="matrix(0.0742743478121109,0,0,0.0742743478121109,22.282304343633268,0)" xlink:href="#aW"/></g><g id="aw"><use transform="matrix(0.0742743478121109,0,0,0.0742743478121109,0,0)" xlink:href="#bc"/><use transform="matrix(0.0742743478121109,0,0,0.0742743478121109,14.854869562422179,0)" xlink:href="#aR"/><use transform="matrix(0.0742743478121109,0,0,0.0742743478121109,29.709739124844358,0)" xlink:href="#aX"/><use transform="matrix(0.0742743478121109,0,0,0.0742743478121109,38.54838651448556,0)" xlink:href="#bd"/><use transform="matrix(0.0742743478121109,0,0,0.0742743478121109,51.91776912066552,0)" xlink:href="#bj"/><use transform="matrix(0.0742743478121109,0,0,0.0742743478121109,66.77263868308769,0)" xlink:href="#bf"/><use transform="matrix(0.0742743478121109,0,0,0.0742743478121109,81.62750824550987,0)" xlink:href="#aS"/><use transform="matrix(0.0742743478121109,0,0,0.0742743478121109,94.99689085168984,0)" xlink:href="#aW"/></g><g id="ax"><use transform="matrix(0.0742743478121109,0,0,0.0742743478121109,0,0)" xlink:href="#bf"/><use transform="matrix(0.0742743478121109,0,0,0.0742743478121109,14.854869562422179,0)" xlink:href="#aV"/><use transform="matrix(0.0742743478121109,0,0,0.0742743478121109,37.06289955824334,0)" xlink:href="#aU"/><use transform="matrix(0.0742743478121109,0,0,0.0742743478121109,51.91776912066552,0)" xlink:href="#aR"/><use transform="matrix(0.0742743478121109,0,0,0.0742743478121109,66.77263868308769,0)" xlink:href="#bl"/><use transform="matrix(0.0742743478121109,0,0,0.0742743478121109,81.62750824550987,0)" xlink:href="#aT"/></g><path d="M101-234c-31-9-42 10-38 44h38v23H63V0H32v-167H5v-23h27c-7-52 17-82 69-68v24" id="cq"/><g id="ay"><use transform="matrix(0.0742743478121109,0,0,0.0742743478121109,0,0)" xlink:href="#cq"/><use transform="matrix(0.0742743478121109,0,0,0.0742743478121109,7.4274347812110895,0)" xlink:href="#bb"/><use transform="matrix(0.0742743478121109,0,0,0.0742743478121109,13.29510825836785,0)" xlink:href="#aW"/><use transform="matrix(0.0742743478121109,0,0,0.0742743478121109,28.149977820790024,0)" xlink:href="#bV"/><use transform="matrix(0.0742743478121109,0,0,0.0742743478121109,34.01765129794679,0)" xlink:href="#aZ"/></g><g id="az"><use transform="matrix(0.0742743478121109,0,0,0.0742743478121109,0,0)" xlink:href="#bb"/><use transform="matrix(0.0742743478121109,0,0,0.0742743478121109,5.867673477156761,0)" xlink:href="#bl"/></g><g id="aA"><use transform="matrix(0.0742743478121109,0,0,0.0742743478121109,0,0)" xlink:href="#bf"/><use transform="matrix(0.0742743478121109,0,0,0.0742743478121109,14.854869562422179,0)" xlink:href="#bV"/><use transform="matrix(0.0742743478121109,0,0,0.0742743478121109,20.72254303957894,0)" xlink:href="#bV"/></g><g id="aB"><use transform="matrix(0.0742743478121109,0,0,0.0742743478121109,0,0)" xlink:href="#aX"/><use transform="matrix(0.0742743478121109,0,0,0.0742743478121109,8.838647389641197,0)" xlink:href="#aW"/><use transform="matrix(0.0742743478121109,0,0,0.0742743478121109,23.693516952063376,0)" xlink:href="#bV"/><use transform="matrix(0.0742743478121109,0,0,0.0742743478121109,29.561190429220137,0)" xlink:href="#bf"/><use transform="matrix(0.0742743478121109,0,0,0.0742743478121109,44.416059991642314,0)" xlink:href="#aT"/><use transform="matrix(0.0742743478121109,0,0,0.0742743478121109,51.843494772853404,0)" xlink:href="#aW"/><use transform="matrix(0.0742743478121109,0,0,0.0742743478121109,66.69836433527558,0)" xlink:href="#aZ"/></g><g id="aC"><use transform="matrix(0.0742743478121109,0,0,0.0742743478121109,0,0)" xlink:href="#bc"/><use transform="matrix(0.0742743478121109,0,0,0.0742743478121109,14.854869562422179,0)" xlink:href="#aR"/><use transform="matrix(0.0742743478121109,0,0,0.0742743478121109,29.709739124844358,0)" xlink:href="#aX"/><use transform="matrix(0.0742743478121109,0,0,0.0742743478121109,38.54838651448556,0)" xlink:href="#bd"/><use transform="matrix(0.0742743478121109,0,0,0.0742743478121109,51.91776912066552,0)" xlink:href="#bj"/><use transform="matrix(0.0742743478121109,0,0,0.0742743478121109,66.77263868308769,0)" xlink:href="#bf"/><use transform="matrix(0.0742743478121109,0,0,0.0742743478121109,81.62750824550987,0)" xlink:href="#aS"/><use transform="matrix(0.0742743478121109,0,0,0.0742743478121109,94.99689085168984,0)" xlink:href="#aW"/><use transform="matrix(0.0742743478121109,0,0,0.0742743478121109,109.85176041411202,0)" xlink:href="#aS"/><use transform="matrix(0.0742743478121109,0,0,0.0742743478121109,123.22114302029198,0)" xlink:href="#bF"/></g><path d="M266 0h-40l-56-210L115 0H75L2-248h35L96-30l15-64 43-154h32l59 218 59-218h35" id="cr"/><g id="aD"><use transform="matrix(0.0742743478121109,0,0,0.0742743478121109,0,0)" xlink:href="#cr"/><use transform="matrix(0.0742743478121109,0,0,0.0742743478121109,25.179003908305592,0)" xlink:href="#bj"/><use transform="matrix(0.0742743478121109,0,0,0.0742743478121109,40.03387347072778,0)" xlink:href="#aW"/><use transform="matrix(0.0742743478121109,0,0,0.0742743478121109,54.88874303314995,0)" xlink:href="#bl"/></g><g id="aE"><use transform="matrix(0.0742743478121109,0,0,0.0742743478121109,0,0)" xlink:href="#bc"/><use transform="matrix(0.0742743478121109,0,0,0.0742743478121109,14.854869562422179,0)" xlink:href="#aW"/><use transform="matrix(0.0742743478121109,0,0,0.0742743478121109,29.709739124844358,0)" xlink:href="#aX"/><use transform="matrix(0.0742743478121109,0,0,0.0742743478121109,38.54838651448556,0)" xlink:href="#cq"/><use transform="matrix(0.0742743478121109,0,0,0.0742743478121109,45.97582129569665,0)" xlink:href="#aU"/><use transform="matrix(0.0742743478121109,0,0,0.0742743478121109,60.83069085811882,0)" xlink:href="#aX"/><use transform="matrix(0.0742743478121109,0,0,0.0742743478121109,69.66933824776002,0)" xlink:href="#aV"/></g><g id="aF"><use transform="matrix(0.0742743478121109,0,0,0.0742743478121109,0,0)" xlink:href="#aS"/><use transform="matrix(0.0742743478121109,0,0,0.0742743478121109,13.369382606179961,0)" xlink:href="#bf"/><use transform="matrix(0.0742743478121109,0,0,0.0742743478121109,28.224252168602142,0)" xlink:href="#aV"/><use transform="matrix(0.0742743478121109,0,0,0.0742743478121109,50.4322821644233,0)" xlink:href="#aW"/></g><g id="aG"><use transform="matrix(0.0742743478121109,0,0,0.0742743478121109,0,0)" xlink:href="#aS"/><use transform="matrix(0.0742743478121109,0,0,0.0742743478121109,13.369382606179961,0)" xlink:href="#aT"/><use transform="matrix(0.0742743478121109,0,0,0.0742743478121109,20.79681738739105,0)" xlink:href="#aW"/><use transform="matrix(0.0742743478121109,0,0,0.0742743478121109,35.65168694981323,0)" xlink:href="#bc"/><use transform="matrix(0.0742743478121109,0,0,0.0742743478121109,50.50655651223541,0)" xlink:href="#aS"/></g><use transform="matrix(0.0742743478121109,0,0,0.0742743478121109,0,0)" xlink:href="#bf" id="aH"/><g id="aI"><use transform="matrix(0.0742743478121109,0,0,0.0742743478121109,0,0)" xlink:href="#aZ"/><use transform="matrix(0.0742743478121109,0,0,0.0742743478121109,14.854869562422179,0)" xlink:href="#bf"/><use transform="matrix(0.0742743478121109,0,0,0.0742743478121109,29.709739124844358,0)" xlink:href="#aT"/><use transform="matrix(0.0742743478121109,0,0,0.0742743478121109,37.137173906055445,0)" xlink:href="#bf"/><use transform="matrix(0.0742743478121109,0,0,0.0742743478121109,51.992043468477625,0)" xlink:href="#aS"/><use transform="matrix(0.0742743478121109,0,0,0.0742743478121109,65.36142607465759,0)" xlink:href="#aW"/><use transform="matrix(0.0742743478121109,0,0,0.0742743478121109,80.21629563707977,0)" xlink:href="#aT"/></g><g id="aJ"><use transform="matrix(0.0742743478121109,0,0,0.0742743478121109,0,0)" xlink:href="#aU"/><use transform="matrix(0.0742743478121109,0,0,0.0742743478121109,14.854869562422179,0)" xlink:href="#cq"/></g><g id="aK"><use transform="matrix(0.0742743478121109,0,0,0.0742743478121109,0,0)" xlink:href="#bf"/><use transform="matrix(0.0742743478121109,0,0,0.0742743478121109,14.854869562422179,0)" xlink:href="#bb"/><use transform="matrix(0.0742743478121109,0,0,0.0742743478121109,20.72254303957894,0)" xlink:href="#aX"/><use transform="matrix(0.0742743478121109,0,0,0.0742743478121109,29.56119042922014,0)" xlink:href="#bc"/><use transform="matrix(0.0742743478121109,0,0,0.0742743478121109,44.41605999164233,0)" xlink:href="#bV"/><use transform="matrix(0.0742743478121109,0,0,0.0742743478121109,50.283733468799085,0)" xlink:href="#bf"/><use transform="matrix(0.0742743478121109,0,0,0.0742743478121109,65.13860303122127,0)" xlink:href="#bl"/><use transform="matrix(0.0742743478121109,0,0,0.0742743478121109,79.99347259364345,0)" xlink:href="#aW"/></g><g id="aL"><use transform="matrix(0.0742743478121109,0,0,0.0742743478121109,0,0)" xlink:href="#cq"/><use transform="matrix(0.0742743478121109,0,0,0.0742743478121109,7.4274347812110895,0)" xlink:href="#bV"/><use transform="matrix(0.0742743478121109,0,0,0.0742743478121109,13.29510825836785,0)" xlink:href="#bb"/><use transform="matrix(0.0742743478121109,0,0,0.0742743478121109,19.16278173552461,0)" xlink:href="#bP"/><use transform="matrix(0.0742743478121109,0,0,0.0742743478121109,34.01765129794679,0)" xlink:href="#bj"/><use transform="matrix(0.0742743478121109,0,0,0.0742743478121109,48.87252086036897,0)" xlink:href="#aT"/><use transform="matrix(0.0742743478121109,0,0,0.0742743478121109,56.29995564158006,0)" xlink:href="#aS"/><use transform="matrix(0.0742743478121109,0,0,0.0742743478121109,69.66933824776002,0)" xlink:href="#cl"/></g><path d="M109-170H84l-4-78h32zm-65 0H19l-4-78h33" id="cs"/><g id="aM"><use transform="matrix(0.0742743478121109,0,0,0.0742743478121109,0,0)" xlink:href="#cs"/><use transform="matrix(0.0742743478121109,0,0,0.0742743478121109,9.432842172138084,0)" xlink:href="#aT"/><use transform="matrix(0.0742743478121109,0,0,0.0742743478121109,16.860276953349175,0)" xlink:href="#bj"/><use transform="matrix(0.0742743478121109,0,0,0.0742743478121109,31.71514651577135,0)" xlink:href="#aW"/></g><g id="aN"><use transform="matrix(0.0742743478121109,0,0,0.0742743478121109,0,0)" xlink:href="#bV"/><use transform="matrix(0.0742743478121109,0,0,0.0742743478121109,5.867673477156761,0)" xlink:href="#aU"/><use transform="matrix(0.0742743478121109,0,0,0.0742743478121109,20.72254303957894,0)" xlink:href="#bl"/><use transform="matrix(0.0742743478121109,0,0,0.0742743478121109,35.57741260200112,0)" xlink:href="#bP"/><use transform="matrix(0.0742743478121109,0,0,0.0742743478121109,50.4322821644233,0)" xlink:href="#aW"/><use transform="matrix(0.0742743478121109,0,0,0.0742743478121109,65.28715172684548,0)" xlink:href="#aS"/><use transform="matrix(0.0742743478121109,0,0,0.0742743478121109,78.65653433302543,0)" xlink:href="#aT"/></g><g id="aO"><use transform="matrix(0.0742743478121109,0,0,0.0742743478121109,0,0)" xlink:href="#cq"/><use transform="matrix(0.0742743478121109,0,0,0.0742743478121109,7.4274347812110895,0)" xlink:href="#bV"/><use transform="matrix(0.0742743478121109,0,0,0.0742743478121109,13.29510825836785,0)" xlink:href="#bb"/><use transform="matrix(0.0742743478121109,0,0,0.0742743478121109,19.16278173552461,0)" xlink:href="#bP"/><use transform="matrix(0.0742743478121109,0,0,0.0742743478121109,34.01765129794679,0)" xlink:href="#bj"/><use transform="matrix(0.0742743478121109,0,0,0.0742743478121109,48.87252086036897,0)" xlink:href="#aT"/></g><g id="aP"><use transform="matrix(0.0742743478121109,0,0,0.0742743478121109,0,0)" xlink:href="#aZ"/><use transform="matrix(0.0742743478121109,0,0,0.0742743478121109,14.854869562422179,0)" xlink:href="#aW"/><use transform="matrix(0.0742743478121109,0,0,0.0742743478121109,29.709739124844358,0)" xlink:href="#bV"/><use transform="matrix(0.0742743478121109,0,0,0.0742743478121109,35.57741260200112,0)" xlink:href="#bf"/><use transform="matrix(0.0742743478121109,0,0,0.0742743478121109,50.4322821644233,0)" xlink:href="#bQ"/><use transform="matrix(0.0742743478121109,0,0,0.0742743478121109,63.80166477060326,0)" xlink:href="#cs"/><use transform="matrix(0.0742743478121109,0,0,0.0742743478121109,73.23450694274135,0)" xlink:href="#bF"/></g></defs></g></svg>